<svg width="105" height="104" viewBox="0 0 105 104" fill="none" xmlns="http://www.w3.org/2000/svg">
<path d="M48.0867 2.68551C49.6644 -0.895348 54.7451 -0.895351 56.3227 2.68551L59.2098 9.23813C60.3993 11.9381 63.8217 12.782 66.1301 10.9447L71.7416 6.47841C74.8043 4.04078 79.3037 6.40531 79.0332 10.3103L78.5401 17.4297C78.336 20.3757 80.9768 22.7164 83.877 22.1601L90.9098 20.8112C94.7567 20.0733 97.6444 24.2621 95.5863 27.595L91.8449 33.6537C90.2918 36.1688 91.5442 39.4728 94.3743 40.3264L101.207 42.3873C104.959 43.519 105.572 48.5728 102.199 50.5685L96.0659 54.1977C93.5212 55.7034 93.0954 59.2121 95.206 61.2828L100.289 66.2697C103.086 69.0137 101.283 73.7734 97.3704 73.9759L90.2305 74.3454C87.2798 74.4982 85.2744 77.4048 86.1793 80.2175L88.3616 87.0015C89.5608 90.7291 85.7566 94.1036 82.1987 92.4685L75.6846 89.4747C73.0028 88.2422 69.8805 89.8817 69.3726 92.7891L68.1423 99.8313C67.4688 103.686 62.5356 104.904 60.1459 101.805L55.7683 96.1278C53.9669 93.7917 50.4426 93.7917 48.6412 96.1278L44.2636 101.805C41.8739 104.904 36.9406 103.686 36.2671 99.8313L35.0369 92.7891C34.5289 89.8817 31.4066 88.2422 28.7248 89.4747L22.2107 92.4685C18.6528 94.1036 14.8486 90.7291 16.0478 87.0015L18.2302 80.2175C19.135 77.4048 17.1297 74.4982 14.179 74.3454L7.03904 73.9759C3.12601 73.7734 1.32321 69.0137 4.12021 66.2697L9.20342 61.2828C11.3141 59.2121 10.8882 55.7034 8.34355 54.1977L2.20995 50.5685C-1.1628 48.5728 -0.549939 43.519 3.20205 42.3873L10.0352 40.3264C12.8652 39.4728 14.1176 36.1688 12.5645 33.6537L8.82317 27.595C6.76509 24.2621 9.65269 20.0733 13.4996 20.8112L20.5325 22.1601C23.4326 22.7164 26.0734 20.3757 25.8694 17.4297L25.3762 10.3103C25.1057 6.40531 29.6052 4.04078 32.6678 6.47841L38.2793 10.9447C40.5877 12.782 44.0101 11.9381 45.1997 9.23814L48.0867 2.68551Z" fill="#0E1B33" fill-opacity="0.2"/>
</svg>
