<svg width="117" height="116" viewBox="0 0 117 116" fill="none" xmlns="http://www.w3.org/2000/svg">
<path d="M57.0017 0.519868C57.6001 -0.173405 58.6745 -0.173404 59.2729 0.519869L67.4945 10.0462C67.9344 10.5559 68.66 10.71 69.2691 10.4232L80.663 5.05771C81.4919 4.6674 82.4739 5.10476 82.7383 5.98192L86.3658 18.0182C86.5603 18.6634 87.1611 19.0998 87.8349 19.085L100.427 18.8089C101.344 18.7888 102.064 19.5888 101.948 20.4985L100.358 32.9621C100.272 33.6314 100.644 34.2754 101.267 34.5358L112.878 39.3937C113.725 39.748 114.058 40.7728 113.581 41.5569L107.05 52.2957C106.699 52.8726 106.777 53.6128 107.24 54.1041L115.866 63.2533C116.496 63.9213 116.383 64.9932 115.628 65.5157L105.284 72.6758C104.729 73.06 104.499 73.7676 104.722 74.4048L108.873 86.2647C109.177 87.1306 108.638 88.0634 107.737 88.2341L95.3643 90.5767C94.7017 90.7021 94.2043 91.2543 94.1485 91.9263L93.1077 104.45C93.0318 105.363 92.1617 105.996 91.2695 105.786L79.0079 102.902C78.3522 102.748 77.6742 103.05 77.3498 103.64L71.2932 114.663C70.8521 115.465 69.801 115.689 69.0715 115.135L59.0443 107.522C58.5081 107.115 57.7665 107.115 57.2303 107.522L47.203 115.135C46.4736 115.689 45.4225 115.465 44.9814 114.663L38.9248 103.64C38.6004 103.05 37.9224 102.748 37.2667 102.902L25.0051 105.786C24.1129 105.996 23.2428 105.363 23.1669 104.45L22.1261 91.9263C22.0703 91.2543 21.5729 90.7021 20.9103 90.5767L8.53788 88.2341C7.63642 88.0634 7.09804 87.1306 7.40117 86.2647L11.5527 74.4048C11.7757 73.7676 11.5457 73.06 10.9906 72.6758L0.646353 65.5157C-0.108479 64.9932 -0.221105 63.9213 0.408641 63.2533L9.0343 54.1041C9.49749 53.6128 9.57532 52.8726 9.22447 52.2957L2.69344 41.5569C2.21652 40.7728 2.5494 39.748 3.39611 39.3937L15.0079 34.5358C15.6303 34.2754 16.0023 33.6314 15.9169 32.9621L14.3264 20.4985C14.2104 19.5888 14.9304 18.7888 15.8472 18.8089L28.4397 19.085C29.1135 19.0998 29.7143 18.6634 29.9088 18.0182L33.5363 5.98193C33.8007 5.10476 34.7827 4.6674 35.6116 5.05771L47.0055 10.4232C47.6146 10.71 48.3402 10.5559 48.7801 10.0462L57.0017 0.519868Z" fill="#0E1B33" fill-opacity="0.2"/>
</svg>
