<svg width="21" height="21" viewBox="0 0 21 21" fill="none" xmlns="http://www.w3.org/2000/svg">
<path d="M12.6099 4.41667C13.5053 4.59135 14.3281 5.02924 14.9732 5.67427C15.6182 6.31931 16.0561 7.14216 16.2308 8.0375M12.6099 0.75C14.4701 0.95665 16.2047 1.78966 17.529 3.11226C18.8533 4.43485 19.6884 6.16842 19.8974 8.02833M18.9808 15.3433V18.0933C18.9818 18.3486 18.9295 18.6013 18.8272 18.8352C18.725 19.0691 18.575 19.2791 18.3868 19.4517C18.1987 19.6243 17.9766 19.7557 17.7348 19.8375C17.493 19.9193 17.2367 19.9496 16.9824 19.9267C14.1617 19.6202 11.4522 18.6563 9.07161 17.1125C6.85678 15.7051 4.979 13.8273 3.57161 11.6125C2.02242 9.2211 1.05833 6.49841 0.75744 3.665C0.734533 3.41151 0.764659 3.15603 0.845899 2.91482C0.927139 2.67361 1.05771 2.45196 1.22931 2.26399C1.4009 2.07601 1.60976 1.92582 1.84258 1.82298C2.0754 1.72014 2.32709 1.66691 2.58161 1.66667H5.33161C5.77647 1.66229 6.20775 1.81982 6.54506 2.1099C6.88236 2.39999 7.10268 2.80283 7.16494 3.24333C7.28101 4.12339 7.49627 4.9875 7.80661 5.81917C7.92994 6.14726 7.95663 6.50384 7.88352 6.84664C7.81041 7.18944 7.64056 7.5041 7.39411 7.75333L6.22994 8.9175C7.53487 11.2124 9.43502 13.1126 11.7299 14.4175L12.8941 13.2533C13.1433 13.0069 13.458 12.837 13.8008 12.7639C14.1436 12.6908 14.5002 12.7175 14.8283 12.8408C15.6599 13.1512 16.524 13.3664 17.4041 13.4825C17.8494 13.5453 18.2561 13.7696 18.5468 14.1127C18.8375 14.4558 18.9919 14.8938 18.9808 15.3433Z" stroke="#0E1B33" stroke-width="1.5" stroke-linecap="round" stroke-linejoin="round"/>
</svg>
