<svg width="20" height="22" viewBox="0 0 20 22" fill="none" xmlns="http://www.w3.org/2000/svg">
<path d="M17.5442 5.94823L10.5757 1.01297C10.081 0.66262 9.41903 0.66262 8.92435 1.01297L1.95584 5.94823C1.19952 6.48386 0.75 7.35307 0.75 8.27985V17.5711C0.75 19.149 2.02919 20.4282 3.60714 20.4282H5.75C6.53898 20.4282 7.17857 19.7886 7.17857 18.9997V16.8568C7.17857 16.0678 7.81817 15.4282 8.60714 15.4282H10.8929C11.6818 15.4282 12.3214 16.0678 12.3214 16.8568V18.9997C12.3214 19.7886 12.961 20.4282 13.75 20.4282H15.8929C17.4708 20.4282 18.75 19.149 18.75 17.5711V8.27985C18.75 7.35307 18.3005 6.48386 17.5442 5.94823Z" stroke="#0E1B33" stroke-opacity="0.8" stroke-width="1.5" stroke-linecap="round"/>
</svg>
