<svg width="18" height="20" viewBox="0 0 18 20" fill="none" xmlns="http://www.w3.org/2000/svg">
<path d="M13.1914 0C16.2802 0.000156067 18 1.78021 18 4.83008V15.1602C17.9999 18.2599 16.2801 19.9998 13.1914 20H4.80957C1.76988 19.9998 5.95304e-05 18.2599 0 15.1602V4.83008C0 1.78022 1.76983 0.000167701 4.80957 0H13.1914ZM5.08008 13.7402C4.78011 13.7102 4.49009 13.8504 4.33008 14.1104C4.17024 14.3603 4.17018 14.6903 4.33008 14.9502C4.49012 15.2 4.78021 15.3505 5.08008 15.3105H12.9199C13.3188 15.2705 13.6199 14.9291 13.6201 14.5303C13.6201 14.1204 13.3188 13.7803 12.9199 13.7402H5.08008ZM5.08008 9.17969C4.64922 9.17969 4.30004 9.53016 4.2998 9.95996C4.30002 10.3898 4.64921 10.7402 5.08008 10.7402H12.9199C13.3497 10.7402 13.7 10.3897 13.7002 9.95996C13.7 9.53019 13.3497 9.17974 12.9199 9.17969H5.08008ZM5.08008 4.65039V4.66016C4.64908 4.66016 4.2998 5.01043 4.2998 5.44043C4.30004 5.87023 4.64922 6.2207 5.08008 6.2207H8.06934C8.49989 6.22044 8.84925 5.8702 8.84961 5.42969C8.84961 5.00085 8.50012 4.65065 8.06934 4.65039H5.08008Z" fill="#0E1B33" fill-opacity="0.8"/>
</svg>
