<svg width="17" height="20" viewBox="0 0 17 20" fill="none" xmlns="http://www.w3.org/2000/svg">
<path d="M8.06053 17.7372C5.9247 17.7372 3.78886 17.3981 1.76303 16.7197C0.993031 16.4539 0.406364 15.9131 0.149698 15.2072C-0.116136 14.5014 -0.024469 13.7222 0.397198 13.0256L1.45136 11.2747C1.67136 10.9081 1.87303 10.1747 1.87303 9.74389V7.09473C1.87303 3.68473 4.65053 0.907227 8.06053 0.907227C11.4705 0.907227 14.248 3.68473 14.248 7.09473V9.74389C14.248 10.1656 14.4497 10.9081 14.6697 11.2839L15.7147 13.0256C16.1089 13.6856 16.1822 14.4831 15.9164 15.2072C15.6505 15.9314 15.073 16.4814 14.3489 16.7197C12.3322 17.3981 10.1964 17.7372 8.06053 17.7372ZM8.06053 2.28223C5.41137 2.28223 3.24803 4.43639 3.24803 7.09473V9.74389C3.24803 10.4131 2.97303 11.4031 2.63386 11.9806L1.5797 13.7314C1.37803 14.0706 1.32303 14.4281 1.4422 14.7306C1.5522 15.0422 1.8272 15.2806 2.20303 15.4089C6.0347 16.6922 10.0955 16.6922 13.9272 15.4089C14.2572 15.2989 14.5139 15.0514 14.633 14.7214C14.7522 14.3914 14.7247 14.0339 14.5414 13.7314L13.4872 11.9806C13.1389 11.3847 12.873 10.4039 12.873 9.73473V7.09473C12.873 4.43639 10.7189 2.28223 8.06053 2.28223Z" fill="#0E1B33"/>
<path d="M9.76718 2.53C9.70301 2.53 9.63885 2.52083 9.57468 2.5025C9.30885 2.42917 9.05218 2.37417 8.80468 2.3375C8.02551 2.23667 7.27385 2.29167 6.56801 2.5025C6.31135 2.585 6.03635 2.5025 5.86218 2.31C5.68801 2.1175 5.63301 1.8425 5.73385 1.595C6.10968 0.6325 7.02635 0 8.07135 0C9.11635 0 10.033 0.623333 10.4088 1.595C10.5005 1.8425 10.4547 2.1175 10.2805 2.31C10.143 2.45667 9.95051 2.53 9.76718 2.53Z" fill="#0E1B33"/>
<path d="M8.06055 19.8271C7.15305 19.8271 6.27305 19.4605 5.63138 18.8188C4.98971 18.1771 4.62305 17.2971 4.62305 16.3896H5.99805C5.99805 16.9305 6.21805 17.4621 6.60305 17.8471C6.98805 18.2321 7.51971 18.4521 8.06055 18.4521C9.19721 18.4521 10.123 17.5263 10.123 16.3896H11.498C11.498 18.2871 9.95805 19.8271 8.06055 19.8271Z" fill="#0E1B33"/>
</svg>
