<svg width="182" height="74" viewBox="0 0 182 74" fill="none" xmlns="http://www.w3.org/2000/svg">
<g clip-path="url(#clip0_420_33000)">
<path d="M0.0861206 21.6744C0.69581 20.2726 1.32329 19.8943 2.87644 19.9477C3.17461 19.9477 3.47278 19.9477 3.76649 19.9477C4.02193 19.9339 4.27751 19.9718 4.51793 20.0592C4.75834 20.1465 4.97864 20.2815 5.16565 20.456C5.35266 20.6305 5.50248 20.8411 5.60619 21.0749C5.70989 21.3087 5.76532 21.5611 5.76913 21.8168C6.10316 25.6044 7.81108 29.1389 10.571 31.7543C13.3435 34.3889 16.9838 35.0742 20.2726 33.5344C22.5422 32.4753 24.1799 30.7085 25.4349 28.559C26.5698 26.5803 27.3245 24.4068 27.6601 22.1506C27.887 20.7265 28.7503 19.9522 30.1923 19.9255C30.6535 19.8942 31.1166 19.9031 31.5763 19.9522C31.9653 20.0201 32.3292 20.1904 32.6306 20.4455C32.932 20.7006 33.1601 21.0314 33.2915 21.4038C33.4229 21.7762 33.4528 22.1768 33.3782 22.5646C33.3036 22.9523 33.1271 23.3133 32.8669 23.6103C32.6769 23.8429 32.5648 24.1293 32.5464 24.4291C32.5049 30.4341 32.4767 36.439 32.4619 42.4437C32.4619 45.9122 32.4619 49.3788 32.4619 52.8442C32.4679 53.0894 32.561 53.3245 32.7244 53.5072C33.4409 54.2771 33.3252 55.1138 33.0048 55.9995C32.9017 56.3598 32.6916 56.6804 32.4024 56.9189C32.1132 57.1573 31.7584 57.3019 31.3849 57.3344C30.4613 57.4133 29.5332 57.4249 28.608 57.3699C28.2118 57.3684 27.8272 57.2369 27.5129 56.9959C27.1986 56.7548 26.972 56.4173 26.8679 56.035C26.7117 55.6348 26.6748 55.1975 26.7617 54.7767C26.8485 54.3555 27.0555 53.9688 27.3574 53.6631C27.5276 53.4882 27.6328 53.2606 27.6556 53.0176C27.6319 46.5142 27.5977 40.0097 27.5533 33.5033C27.5461 33.4152 27.5342 33.3275 27.5176 33.2407C24.5271 36.6096 21.0825 39.0261 16.3919 38.9547C11.7014 38.8837 8.32359 36.5161 5.40864 32.9381C5.36862 34.2732 5.2796 35.4347 5.30183 36.6096C5.39975 42.0565 5.51844 47.5053 5.65787 52.9556C5.67865 53.2146 5.78875 53.4583 5.9694 53.6451C6.25616 53.9643 6.44941 54.3559 6.52792 54.7775C6.60644 55.199 6.56716 55.6344 6.41443 56.035C6.32189 56.4117 6.10701 56.7473 5.8034 56.9888C5.49979 57.2305 5.12462 57.3647 4.73666 57.3699C3.81287 57.4271 2.88614 57.4152 1.96414 57.3344C1.5788 57.3109 1.21155 57.1629 0.917756 56.9125C0.623963 56.6621 0.419551 56.3228 0.335335 55.9461C0.194535 55.5511 0.172611 55.1235 0.272271 54.7162C0.371931 54.3088 0.588803 53.9396 0.89607 53.6541C1.07638 53.4665 1.18235 53.2198 1.19424 52.9597C1.16754 50.757 1.08743 48.554 1.06518 46.3513C1.03848 43.9259 1.06518 41.496 1.06518 39.0705C1.03254 34.1396 0.991009 29.2088 0.940572 24.2778C0.9309 24.1386 0.886532 24.0039 0.811516 23.8862C0.584551 23.5124 0.339786 23.1519 0.0994709 22.7825L0.0861206 21.6744Z" fill="#BA0017"/>
<path d="M181.991 55.2738C181.631 56.6091 180.692 57.0986 179.379 57.0541C178.32 57.0317 177.265 57.0941 176.21 57.0541C175.779 57.0452 175.363 56.8882 175.034 56.6098C174.704 56.331 174.48 55.9472 174.399 55.523C174.269 55.0835 174.289 54.6134 174.457 54.187C174.625 53.7602 174.93 53.4022 175.325 53.169C175.609 52.9997 175.623 52.8308 175.601 52.546C175.389 50.6886 175.279 48.8212 175.271 46.9518C175.329 45.3897 175.325 43.8365 175.236 42.2968C175.165 41.0464 175.209 39.7869 175.196 38.5365C175.196 38.3138 175.169 38.0914 175.151 37.869L162.748 37.4239C162.717 37.7666 162.655 38.1269 162.655 38.4875C162.655 41.6383 162.628 44.7891 162.681 47.9399C162.708 49.4572 162.868 50.9659 163.007 52.4791C163.026 52.5957 163.067 52.7071 163.13 52.8072C163.193 52.9074 163.275 52.9941 163.371 53.0621C163.75 53.2781 164.047 53.6137 164.213 54.017C164.38 54.4198 164.408 54.8668 164.293 55.2872C164.23 55.7233 164.019 56.1243 163.695 56.4222C163.37 56.72 162.952 56.8961 162.513 56.9204C161.258 57.0007 160 57.0317 158.739 57.0138C158.288 57.0209 157.849 56.8751 157.493 56.6005C157.137 56.3254 156.884 55.9379 156.776 55.501C156.647 55.032 156.677 54.5334 156.862 54.0838C157.048 53.6343 157.377 53.2591 157.8 53.0176C157.878 52.9563 157.943 52.879 157.989 52.7908C158.035 52.7026 158.062 52.6054 158.066 52.506C158.017 51.451 157.906 50.4009 157.866 49.3462C157.813 47.9 157.769 46.4533 157.786 45.0115C157.84 40.6771 157.951 36.3424 157.977 32.0078C157.977 30.7929 157.755 29.5825 157.671 28.3675C157.595 27.2816 157.564 26.1914 157.515 25.1055C157.515 24.9186 157.515 24.7317 157.488 24.5492C157.486 24.3242 157.427 24.1033 157.316 23.9073C157.206 23.7112 157.047 23.5462 156.856 23.4277C156.104 22.9515 155.966 22.1416 156.126 21.3094C156.185 20.9076 156.38 20.538 156.678 20.2619C156.976 19.9859 157.359 19.82 157.764 19.7918C159.187 19.7029 160.614 19.7029 162.036 19.7918C162.958 19.8541 163.505 20.5751 163.692 21.6254C163.773 22.0194 163.721 22.4292 163.546 22.7912C163.371 23.1532 163.081 23.4473 162.721 23.628C162.605 23.6784 162.509 23.7674 162.45 23.8799C162.391 23.9924 162.372 24.1219 162.397 24.2466C162.533 26.445 162.667 28.6449 162.797 30.8463C162.833 31.4738 162.895 32.1058 162.877 32.7332C162.877 33.2717 163.073 33.423 163.585 33.4364C166.865 33.5387 170.14 33.6723 173.42 33.7835C174.101 33.8058 174.782 33.7835 175.494 33.7835C175.51 33.7299 175.521 33.6747 175.525 33.6189C175.427 30.4725 175.334 27.3261 175.218 24.1798C175.202 24.0904 175.17 24.005 175.121 23.9285C175.072 23.8521 175.008 23.7862 174.933 23.7348C174.536 23.5055 174.222 23.1549 174.039 22.7344C173.856 22.3139 173.812 21.8456 173.914 21.3984C174 20.9555 174.234 20.5551 174.578 20.2631C174.921 19.9711 175.355 19.8048 175.805 19.7918C177.064 19.7251 178.325 19.7251 179.584 19.7918C180.045 19.8011 180.488 19.9761 180.831 20.285C181.174 20.5939 181.395 21.0159 181.453 21.474C181.675 22.511 181.377 23.1429 180.438 23.7659C180.362 23.8411 180.301 23.9313 180.262 24.0309C180.222 24.1305 180.203 24.2373 180.207 24.3445C180.242 27.4597 180.34 30.5971 180.327 33.7257C180.327 35.1853 180.011 36.6406 180.002 38.0959C180.002 39.7604 180.198 41.4246 180.247 43.0891C180.3 44.9405 180.247 46.7915 180.313 48.6429C180.354 50.0092 180.492 51.371 180.598 52.7373C180.603 52.79 180.618 52.8416 180.643 52.8883C180.668 52.935 180.703 52.9762 180.745 53.0087C181.084 53.1798 181.376 53.4317 181.595 53.7423C181.813 54.0525 181.953 54.412 182 54.7887L181.991 55.2738Z" fill="#BA0017"/>
<path d="M75.6298 38.5679C75.6298 41.9721 75.6028 45.3587 75.6298 48.7454C75.6298 50.0537 75.7897 51.3666 75.9145 52.675C75.959 52.8962 76.0887 53.0913 76.2748 53.218C76.6302 53.4445 76.9045 53.7771 77.0588 54.1687C77.2128 54.5608 77.2394 54.9913 77.134 55.3986C76.9202 56.3378 76.3196 56.9873 75.4205 57.0452C74.1121 57.1342 72.7947 57.1656 71.4774 57.1387C71.0555 57.1349 70.6462 56.9936 70.3118 56.7369C69.9769 56.4802 69.7347 56.1214 69.6219 55.7148C69.4776 55.2794 69.4776 54.8089 69.6219 54.3735C69.7661 53.9385 70.0472 53.5611 70.4228 53.2983C70.5382 53.2311 70.6302 53.1305 70.687 53.0095C70.7434 52.8884 70.7613 52.7531 70.7389 52.6215C70.65 50.1027 70.5607 47.5838 70.5162 45.0564C70.4762 42.8313 70.5162 40.6058 70.5162 38.3807C70.4762 35.7552 70.3783 33.1295 70.3428 30.5038C70.3428 29.8586 70.4717 29.2177 70.4986 28.5724C70.5756 27.0178 70.6305 25.4676 70.6631 23.9219C70.6631 23.7839 70.4986 23.6104 70.3648 23.5125C70.0162 23.2774 69.7471 22.9413 69.5946 22.5492C69.4418 22.1571 69.4126 21.7277 69.5105 21.3185C69.5711 20.8994 69.7661 20.5114 70.0662 20.2129C70.3667 19.9143 70.7557 19.7213 71.175 19.6629C72.2936 19.5043 73.423 19.4299 74.5527 19.4404C77.668 19.4404 80.7829 19.4404 83.8982 19.5562C86.1854 19.6376 88.4195 20.2664 90.4136 21.3897C93.5065 23.1075 95.1307 27.6868 93.1148 31.3361C91.9978 33.3565 90.2933 34.6515 88.3129 35.635C87.0046 36.2848 85.6427 36.7743 84.2719 37.3306C84.1075 37.4019 83.9337 37.455 83.6848 37.5443C84.0533 38.1583 84.467 38.7443 84.9218 39.2974C86.7295 41.234 88.264 43.4079 89.4834 45.7594C90.3377 47.348 91.4548 48.7988 92.4339 50.3254C92.9235 51.0863 93.3686 51.8786 93.8582 52.6395C93.9822 52.8499 94.1687 53.0162 94.3922 53.1156C95.4199 53.5028 95.9095 54.3261 95.7895 55.5455C95.7544 55.9951 95.5574 56.4166 95.2349 56.732C94.9124 57.0471 94.4864 57.2343 94.036 57.259C92.7041 57.3715 91.3662 57.3965 90.0309 57.3345C88.4953 57.2411 87.6944 55.5545 88.4778 54.1616C88.5652 54.0473 88.6127 53.9071 88.6127 53.7632C88.6127 53.6194 88.5652 53.4792 88.4778 53.3649C87.5031 51.8831 86.506 50.4054 85.5762 48.9146C85.0553 48.0689 84.6371 47.1346 84.183 46.2444C83.1508 44.2286 81.5752 42.6085 80.2044 40.842C79.6973 40.1831 79.1987 39.5067 78.6826 38.8572C78.5802 38.7279 78.411 38.5679 78.2686 38.5634C77.3787 38.5545 76.511 38.5679 75.6298 38.5679ZM75.6298 23.6727V24.4248C75.6298 25.9646 75.7632 27.5177 75.5629 29.0308C75.3689 30.4791 75.2856 31.94 75.3136 33.401C75.3136 33.668 75.3405 33.9394 75.3581 34.291C76.9026 34.2154 78.3979 34.2554 79.8576 34.0507C82.2251 33.7125 84.3788 32.6756 86.506 31.6431C87.0961 31.3262 87.5977 30.8674 87.9658 30.308C88.5177 29.4981 89.1362 28.6748 89.0163 27.5756C88.8205 25.7332 87.7389 24.5405 85.7941 24.0153C82.4475 23.0852 79.0608 23.6549 75.6298 23.6727Z" fill="#BA0017"/>
<path d="M45.3412 44.2061C45.0919 45.5411 44.8961 46.876 44.5934 48.1713C44.1927 49.8044 43.7032 51.411 43.2095 53.0266C43.1545 53.1484 43.1385 53.2841 43.1631 53.4153C43.1878 53.5464 43.2521 53.6671 43.3474 53.7606C43.6041 54.0323 43.7809 54.3697 43.8579 54.7356C43.9349 55.1015 43.9087 55.4815 43.7831 55.8336C43.6572 56.1856 43.4363 56.4958 43.1452 56.7301C42.8537 56.9644 42.5032 57.1136 42.1324 57.1606C40.7321 57.2918 39.3228 57.2918 37.9225 57.1606C36.89 57.0852 36.2892 56.2484 36.218 55.1448C36.1601 54.1747 36.663 53.4982 37.6243 53.1286C37.8246 53.0438 37.9842 52.8842 38.0694 52.6839C38.5145 51.2907 38.9592 49.9023 39.3419 48.4915C39.9294 46.3154 40.4589 44.1213 41.0288 41.9407C41.2157 41.2242 41.4739 40.5213 41.6784 39.818C42.4841 37.2991 43.2495 34.7669 44.1038 32.2525C45.0564 29.4711 46.0931 26.7163 47.1032 23.9572C47.166 23.8291 47.1952 23.6872 47.1881 23.5448C47.181 23.4025 47.138 23.2642 47.0632 23.1428C46.907 22.8501 46.8207 22.5253 46.811 22.1938C46.8009 21.8622 46.8678 21.5329 47.0061 21.2313C47.1443 20.9298 47.3503 20.6643 47.6081 20.4555C47.8656 20.2467 48.1683 20.1003 48.492 20.0276C48.8362 19.9588 49.1863 19.9231 49.5376 19.9208C50.8195 19.9208 52.0965 19.8941 53.3783 19.9208C53.7483 19.9017 54.1168 19.9818 54.4453 20.1529C54.7738 20.324 55.0507 20.5798 55.2473 20.8939C55.4438 21.208 55.553 21.5689 55.5631 21.9393C55.5731 22.3096 55.4842 22.676 55.3052 23.0004C55.2443 23.1154 55.2196 23.2461 55.2338 23.3754C55.248 23.5047 55.3007 23.6268 55.3852 23.7258C55.9996 24.8161 56.5826 25.9287 57.1656 27.0413C57.4369 27.5664 57.6727 28.1093 57.9085 28.6522C58.2292 29.3732 58.5719 30.0897 58.8387 30.8329C59.4886 32.6397 60.1336 34.4465 60.708 36.2756C60.9973 37.2057 61.0862 38.1938 61.331 39.1415C61.7761 40.8771 62.3187 42.5906 62.7418 44.3351C63.2269 46.3288 63.6316 48.3402 64.0546 50.3519C64.2101 51.0549 64.3794 51.7537 64.5528 52.4567C64.5872 52.6607 64.6709 52.8532 64.7965 53.0176C64.9224 53.1821 65.0861 53.3132 65.2737 53.4003C65.6022 53.564 65.8672 53.832 66.0282 54.1616C66.1889 54.4916 66.2368 54.8653 66.1639 55.2248C66.057 56.115 65.6609 56.7959 64.7711 57.0493C64.2822 57.1633 63.7818 57.2186 63.2799 57.2141C62.4656 57.2451 61.6513 57.2451 60.8325 57.241C59.8757 57.241 59.0524 56.9517 58.6828 55.9857C58.496 55.5664 58.4493 55.0981 58.5494 54.65C58.6496 54.2019 58.8914 53.7979 59.2393 53.4982C59.2946 53.4313 59.3357 53.3536 59.3596 53.2703C59.3832 53.1866 59.3892 53.0991 59.3772 53.0131C58.8342 50.3104 58.2766 47.6103 57.7041 44.9136C57.666 44.8194 57.6058 44.7364 57.5281 44.671C57.4503 44.606 57.358 44.5608 57.259 44.5399C53.3338 44.4106 49.4042 44.304 45.4791 44.1972C45.4327 44.1945 45.3864 44.1975 45.3412 44.2061ZM56.9118 40.303C55.5765 35.4078 53.9789 30.7261 51.4735 26.3069C49.8579 30.8729 47.5928 35.2075 47.1436 40.1251L56.9118 40.303Z" fill="#BA0017"/>
<path d="M118.094 33.8504C118.094 32.5376 118.028 31.2159 118.094 29.9075C118.21 28.0606 118.437 26.2226 118.633 24.3802C118.677 23.9842 118.704 23.6816 118.277 23.4056C117.937 23.1587 117.684 22.8101 117.555 22.4101C117.426 22.01 117.428 21.5794 117.56 21.1805C117.676 20.7647 117.921 20.3968 118.26 20.1309C118.6 19.865 119.016 19.715 119.447 19.703C120.613 19.6511 121.78 19.6614 122.945 19.7341C123.369 19.728 123.782 19.8734 124.108 20.1443C124.434 20.4152 124.653 20.7937 124.725 21.2116C124.862 21.6401 124.844 22.1031 124.673 22.5191C124.502 22.9352 124.189 23.2775 123.791 23.4857C123.676 23.5617 123.594 23.6774 123.559 23.8106C123.324 25.8355 123.025 27.8515 122.887 29.8808C122.687 32.7823 122.625 35.6928 122.473 38.5945C122.331 41.425 122.086 44.2507 122.002 47.0857C121.938 48.8511 121.375 50.5624 120.378 52.021C118.894 54.3216 116.593 55.973 113.938 56.6401C111.234 57.444 108.348 57.3943 105.674 56.4977C103.315 55.6744 101.904 53.9834 101.223 51.5759C100.511 49.066 100.445 46.5027 100.302 43.9349C100.093 40.2011 99.8216 36.4716 99.6033 32.7423C99.5368 31.5764 99.5678 30.4059 99.5279 29.24C99.5054 28.7059 99.421 28.1719 99.3455 27.6423C99.1896 26.5609 99.0159 25.4884 98.8649 24.4069C98.8686 24.2086 98.8204 24.0126 98.7251 23.8386C98.6298 23.6645 98.4908 23.5184 98.3219 23.4145C97.5965 22.9962 97.3738 22.164 97.601 21.2561C97.6686 20.8385 97.8768 20.4563 98.1903 20.1725C98.5042 19.8886 98.9052 19.7199 99.3275 19.6941C100.582 19.6095 101.846 19.5739 103.106 19.6006C103.547 19.5929 103.978 19.7296 104.334 19.9899C104.69 20.2503 104.951 20.62 105.077 21.0425C105.23 21.4942 105.229 21.9837 105.076 22.435C104.922 22.8864 104.624 23.2744 104.227 23.5391C104.15 23.6043 104.087 23.6852 104.043 23.7766C104 23.8679 103.976 23.9675 103.974 24.0687C104.067 25.5106 104.218 26.9436 104.298 28.381C104.396 30.0855 104.441 31.7899 104.521 33.49C104.632 35.9154 104.628 38.3497 104.904 40.7527C105.282 44.0773 105.251 47.4284 105.967 50.7346C106.091 51.2885 106.364 51.7982 106.756 52.2082C107.148 52.6185 107.645 52.9138 108.192 53.0621C109.576 53.3578 111.007 53.3454 112.385 53.0266C113.782 52.6955 115.028 51.9066 115.925 50.7858C116.823 49.6651 117.32 48.2763 117.338 46.8409C117.494 42.5106 117.841 38.1893 118.108 33.8638L118.094 33.8504Z" fill="#BA0017"/>
<path d="M150.924 24.6385C150.862 25.4129 150.862 26.2006 150.724 26.9571C150.636 27.4861 150.349 27.9614 149.922 28.2857C149.495 28.61 148.96 28.7589 148.428 28.7016C147.413 28.6616 146.692 27.9273 146.478 26.8236C146.382 26.4144 146.196 26.0315 145.935 25.7022C145.406 24.9721 144.73 24.3609 143.951 23.9079C143.171 23.4549 142.305 23.1702 141.409 23.072C139.398 22.8139 137.426 22.8273 135.517 23.655C134.94 23.8631 134.438 24.2384 134.075 24.733C133.712 25.2275 133.504 25.819 133.479 26.432C133.383 27.4506 133.523 28.4776 133.887 29.4336C134.251 30.3897 134.83 31.2492 135.58 31.9459C137.493 33.855 139.415 35.7598 141.365 37.6154C143.523 39.645 145.735 41.6209 147.929 43.6057C150.368 45.8308 151.445 48.563 150.791 51.7987C150.607 52.8892 150.12 53.9064 149.386 54.7335C148.652 55.5609 147.7 56.1644 146.638 56.4757C143.022 57.6597 139.144 57.7849 135.459 56.8364C135.332 56.808 135.207 56.771 135.085 56.725C134.781 56.5658 134.443 56.4828 134.1 56.4828C133.757 56.4828 133.418 56.5658 133.114 56.725C132.818 56.8779 132.488 56.953 132.155 56.944C131.822 56.9347 131.497 56.8412 131.21 56.6723C130.923 56.5038 130.683 56.2646 130.513 55.9783C130.344 55.6917 130.249 55.3669 130.239 55.0339C130.141 53.668 130.141 52.2968 130.239 50.9309C130.315 49.8139 131.231 49.106 132.38 49.084C133.408 49.084 134.12 49.707 134.351 50.8195C134.4 51.0086 134.502 51.1802 134.645 51.3136C135.629 52.2748 136.87 52.6485 138.183 52.9067C140.384 53.2655 142.637 53.1441 144.787 52.5506C146.287 52.1948 146.567 50.9174 146.434 49.8183C146.307 48.8362 145.833 47.9322 145.098 47.2681C143.318 45.6484 141.454 44.1173 139.701 42.4707C137.084 40.0098 134.436 37.5754 131.975 34.9498C129.812 32.649 128.415 29.921 128.566 26.5922C128.673 23.922 129.812 21.9639 132.104 20.6466C133.662 19.8176 135.367 19.3035 137.124 19.1335C139.589 18.7772 142.102 18.9286 144.507 19.5785C145.432 19.8367 146.287 20.3841 147.177 20.7712C147.395 20.8725 147.639 20.9036 147.876 20.8602C149.495 20.393 150.746 21.2563 150.831 22.9474C150.857 23.4992 150.831 24.06 150.831 24.6118L150.924 24.6385Z" fill="#BA0017"/>
<path d="M70.5607 67.935C71.1881 67.7391 71.4505 67.935 71.6553 68.4825C71.9759 69.4437 72.3852 70.3783 72.7947 71.424L74.2455 67.6412C74.7216 68.9276 75.1353 70.1022 75.6384 71.4195C76.0835 70.3649 76.5016 69.4571 76.8309 68.5135C77.0312 67.9529 77.3249 67.7302 77.9614 67.926L75.6073 73.5422C75.1308 72.2383 74.7171 71.0592 74.2321 69.7909L72.7992 73.5377L70.5607 67.935Z" fill="#BA0017"/>
<path d="M99.9816 73.3068C99.6153 73.3169 99.2506 73.2529 98.9097 73.1192C98.5685 72.985 98.258 72.7836 97.9967 72.5268C97.7355 72.2701 97.5285 71.9632 97.3887 71.6247C97.2486 71.2861 97.1783 70.9228 97.182 70.5562C97.1742 70.0031 97.3308 69.4601 97.6324 68.9963C97.9336 68.5325 98.366 68.1685 98.8746 67.951C99.3832 67.7335 99.9449 67.6719 100.489 67.7743C101.032 67.8767 101.533 68.1383 101.928 68.5258C102.323 68.9137 102.593 69.41 102.705 69.9515C102.817 70.4934 102.765 71.0562 102.556 71.5686C102.348 72.081 101.992 72.5197 101.533 72.8292C101.075 73.1386 100.535 73.3049 99.9816 73.3068ZM99.9412 72.541C100.205 72.55 100.469 72.5044 100.714 72.4072C100.96 72.3101 101.183 72.1636 101.37 71.9767C101.557 71.7895 101.704 71.5664 101.801 71.3205C101.898 71.0749 101.944 70.8115 101.935 70.5476C101.95 70.2808 101.911 70.0136 101.819 69.7624C101.728 69.5113 101.587 69.2815 101.404 69.0864C101.221 68.8913 101.001 68.7355 100.756 68.6282C100.511 68.5209 100.247 68.4641 99.9801 68.4619C99.7129 68.4593 99.4479 68.5112 99.2012 68.614C98.9546 68.7171 98.7315 68.8689 98.5454 69.0606C98.3589 69.2523 98.2135 69.4795 98.1178 69.7292C98.0218 69.9784 97.9777 70.2449 97.9878 70.5117C97.9743 70.7756 98.0151 71.039 98.1074 71.2864C98.2001 71.5335 98.3421 71.7592 98.5252 71.9494C98.7083 72.1396 98.9284 72.2902 99.1721 72.3919C99.4154 72.4939 99.6773 72.5448 99.9412 72.541Z" fill="#BA0017"/>
<path d="M92.2781 67.895H93.0439V69.9333H95.3224V67.895H96.1143V73.1596H95.3445V70.7431H93.0973V73.1506H92.3006L92.2781 67.895Z" fill="#BA0017"/>
<path d="M103.777 67.895H104.57C104.57 68.8297 104.57 69.7509 104.57 70.6676C104.558 70.9453 104.567 71.2233 104.596 71.4995C104.6 71.6539 104.637 71.8052 104.704 71.9439C104.771 72.0825 104.867 72.2055 104.985 72.3041C105.104 72.4024 105.242 72.4749 105.39 72.5157C105.539 72.5564 105.695 72.5654 105.847 72.5411C105.992 72.5411 106.135 72.5108 106.267 72.4525C106.4 72.3942 106.519 72.309 106.617 72.2025C106.715 72.0956 106.789 71.9697 106.836 71.8329C106.883 71.6957 106.901 71.5503 106.888 71.4061C106.919 70.387 106.888 69.3723 106.888 68.3532C106.888 68.2243 106.888 68.0953 106.888 67.9085H107.645C107.645 68.0864 107.671 68.2822 107.671 68.478C107.671 69.4747 107.694 70.4763 107.671 71.473C107.668 71.7241 107.614 71.9723 107.512 72.2021C107.41 72.4316 107.262 72.6382 107.078 72.809C106.893 72.9794 106.676 73.111 106.439 73.1951C106.202 73.2792 105.951 73.3139 105.7 73.2975C105.453 73.3034 105.206 73.2605 104.976 73.1708C104.745 73.0815 104.535 72.9473 104.356 72.7761C104.177 72.605 104.034 72.3998 103.935 72.1733C103.836 71.9465 103.782 71.7024 103.777 71.455C103.751 70.276 103.777 69.1145 103.777 67.895Z" fill="#BA0017"/>
<path d="M81.5752 67.895V68.6114H79.528C79.2877 69.8888 79.3146 69.9243 80.4672 69.9243H81.4908V70.6587C80.9567 70.6587 80.4406 70.6587 79.9286 70.6587C79.5815 70.6587 79.417 70.7386 79.4391 71.1037C79.4615 71.4685 79.4391 71.9491 79.4391 72.4166H81.5532L81.6021 73.1461H78.6737V67.895H81.5752Z" fill="#BA0017"/>
<path d="M85.5852 72.4476V73.1685H82.6788V67.895H85.5718V68.6025H83.569C83.5111 68.6914 83.4801 68.7183 83.4756 68.7538C83.3642 69.9153 83.3642 69.9153 84.5037 69.9153H85.4873V70.6497C84.9619 70.6497 84.4323 70.6497 83.9028 70.6497C83.578 70.6497 83.4266 70.7297 83.4577 71.0948C83.4891 71.4595 83.4577 71.9401 83.4577 72.4297L85.5852 72.4476Z" fill="#BA0017"/>
<path d="M116.025 67.895V68.6025H113.96V69.9153H115.976V70.6362H113.964V72.4166H116.007V73.1641H113.163V67.895H116.025Z" fill="#BA0017"/>
<path d="M66.8004 71.7577L67.4988 71.5933C67.6143 71.862 67.7638 72.1146 67.9439 72.3452C68.1222 72.4965 68.3531 72.5713 68.586 72.5541C68.8192 72.5365 69.0363 72.4278 69.1899 72.2517C69.2714 72.1617 69.3323 72.0555 69.3685 71.9401C69.4052 71.8242 69.4164 71.7024 69.4018 71.582C69.3868 71.4617 69.3465 71.3462 69.283 71.2427C69.2198 71.1396 69.135 71.051 69.0344 70.9833C68.7142 70.8006 68.3808 70.6414 68.0374 70.5072C67.3075 70.169 66.9693 69.6529 67.0537 69.003C67.1019 68.6779 67.2611 68.3797 67.5048 68.1588C67.7481 67.9379 68.0609 67.8086 68.389 67.7926C68.722 67.7287 69.0673 67.7825 69.3652 67.945C69.663 68.1072 69.8951 68.3681 70.0222 68.6828L69.4926 69.0254C69.3697 68.8928 69.2374 68.7695 69.0965 68.6558C68.916 68.54 68.6977 68.4974 68.4866 68.5374C68.2758 68.577 68.0878 68.6958 67.9619 68.8696C67.7436 69.2254 67.877 69.5371 68.3801 69.7819C68.6248 69.9022 68.892 69.9866 69.1454 70.1066C69.5277 70.2367 69.8473 70.5054 70.0401 70.86C70.2329 71.2147 70.2856 71.6288 70.187 72.0204C70.0932 72.4117 69.8618 72.7563 69.5348 72.991C69.2078 73.2253 68.8076 73.3344 68.407 73.2974C67.5123 73.2664 66.9648 72.7458 66.8004 71.7577Z" fill="#BA0017"/>
<path d="M111.966 68.6872L111.41 69.0254L111.436 68.8471C111.067 68.7212 110.685 68.639 110.297 68.6024C110.128 68.6024 109.852 68.9185 109.826 69.1144C109.836 69.2339 109.873 69.3502 109.935 69.4533C109.997 69.5565 110.081 69.6447 110.181 69.7108C110.551 69.9466 110.992 70.0666 111.374 70.2893C111.703 70.4698 111.954 70.7654 112.078 71.119C112.203 71.4729 112.193 71.8604 112.051 72.2072C111.91 72.5828 111.641 72.8971 111.292 73.0948C110.943 73.2925 110.536 73.3613 110.141 73.2888C109.769 73.2379 109.428 73.053 109.182 72.7686C108.937 72.4842 108.803 72.1202 108.806 71.7446L109.509 71.5708C109.665 72.0514 109.794 72.5275 110.4 72.541C110.595 72.5623 110.792 72.5133 110.955 72.4034C111.117 72.2936 111.236 72.1295 111.289 71.9404C111.36 71.7651 111.364 71.5704 111.301 71.3925C111.238 71.2146 111.112 71.0663 110.947 70.9743C110.661 70.8058 110.363 70.6571 110.057 70.5296C109.234 70.1645 108.909 69.6974 108.993 68.9765C109.041 68.673 109.186 68.3938 109.407 68.1808C109.628 67.9678 109.912 67.8333 110.217 67.797C110.567 67.7152 110.934 67.7596 111.254 67.9226C111.574 68.0855 111.826 68.3561 111.966 68.6872Z" fill="#BA0017"/>
<path d="M89.3142 67.895V68.598L88.1127 68.6559V73.1685H87.3383V68.6469H86.1189V67.895H89.3142Z" fill="#BA0017"/>
<path d="M90.8569 0.202026V0.971917H88.7876V2.2447H90.8079V2.97454H88.801V4.75467H90.8569V5.51122C90.7806 5.52826 90.7036 5.54015 90.6255 5.5468H87.9553V0.206468L90.8569 0.202026Z" fill="#BA0017"/>
<path d="M85.9619 0.201842C86.5045 0.370953 86.9851 0.580111 86.7538 1.23875C86.2 1.11179 85.6353 1.03877 85.0672 1.02069C84.7776 1.04965 84.5007 1.15575 84.266 1.32794C84.0313 1.50013 83.847 1.73212 83.7323 1.99974C83.5253 2.38502 83.4475 2.82666 83.5111 3.25941C83.5742 3.69216 83.7749 4.09304 84.0836 4.40289C84.8224 5.1372 85.6192 5.1372 86.8917 4.40289C87.07 5.29293 86.9541 5.45759 86.0284 5.64008C85.3434 5.79932 84.6236 5.68653 84.0201 5.32541C83.4165 4.96432 82.9767 4.38312 82.7932 3.70421C82.6063 3.02862 82.6833 2.30719 83.0092 1.68644C83.3347 1.0657 83.8844 0.592174 84.5466 0.362046L84.9514 0.197388L85.9619 0.201842Z" fill="#BA0017"/>
<path d="M81.9168 6.13424L77.6045 2.61407C77.76 3.9002 77.9024 5.06616 78.0492 6.26774L77.2349 6.39237C77.017 4.55439 76.7898 2.75203 76.5585 0.785009L80.8708 4.30071C80.7239 3.01905 80.595 1.87978 80.4571 0.673754L81.2359 0.553589C81.4583 2.396 81.6806 4.19391 81.9168 6.13424Z" fill="#BA0017"/>
<path d="M102.081 3.29938C102.045 4.14704 101.751 4.96365 101.24 5.64023C101.087 5.86409 100.877 6.04306 100.632 6.15865C100.387 6.27428 100.115 6.3223 99.8451 6.29778C99.5753 6.2733 99.3167 6.17715 99.0962 6.01929C98.8761 5.86147 98.7019 5.64763 98.5917 5.39989C98.2815 4.75355 98.1653 4.03104 98.2579 3.32003C98.3502 2.60904 98.647 1.94018 99.1123 1.39466C99.2864 1.18118 99.5151 1.0188 99.7741 0.924777C100.033 0.83075 100.313 0.808566 100.583 0.860576C100.854 0.91259 101.105 1.03686 101.311 1.22021C101.517 1.40355 101.669 1.63914 101.751 1.90198C101.891 2.3602 102.001 2.82698 102.081 3.29938ZM101.395 3.29938L101.302 3.24598C101.28 2.91559 101.209 2.59022 101.093 2.28026C100.949 1.98125 100.695 1.74877 100.385 1.63052C100.228 1.63413 100.074 1.67419 99.9348 1.74756C99.7958 1.82093 99.6758 1.92559 99.5843 2.05329C99.2931 2.46193 99.107 2.9357 99.042 3.43304C98.9766 3.9304 99.0345 4.43611 99.2102 4.90591C99.2673 5.05219 99.3567 5.18373 99.4714 5.29084C99.5861 5.39791 99.7236 5.47777 99.8735 5.52453C100.03 5.52737 100.186 5.49246 100.327 5.42276C100.468 5.35307 100.59 5.25063 100.683 5.12398C100.964 4.52726 101.201 3.9116 101.395 3.28157V3.29938Z" fill="#BA0017"/>
<path d="M106.63 4.02537C106.488 4.86175 106.094 5.63474 105.5 6.24117C105.32 6.44395 105.09 6.59497 104.832 6.67868C104.574 6.7624 104.298 6.7757 104.034 6.71733C103.769 6.65892 103.525 6.53088 103.326 6.34645C103.127 6.16202 102.982 5.92789 102.904 5.66827C102.678 4.98788 102.654 4.25648 102.836 3.56286C103.017 2.86925 103.396 2.24325 103.926 1.76089C104.126 1.57112 104.373 1.43894 104.643 1.37839C104.911 1.31784 105.191 1.33115 105.453 1.41693C105.715 1.50271 105.949 1.65776 106.13 1.86561C106.31 2.07348 106.432 2.3264 106.48 2.59757C106.561 3.06978 106.611 3.54671 106.63 4.02537ZM105.951 3.93878L105.865 3.87402C105.884 3.54346 105.856 3.2118 105.779 2.8896C105.674 2.57476 105.452 2.31216 105.159 2.15567C105.003 2.1394 104.845 2.15966 104.698 2.21488C104.551 2.2701 104.418 2.35874 104.311 2.47384C103.971 2.84245 103.727 3.2889 103.599 3.77401C103.471 4.25917 103.465 4.76813 103.58 5.25639C103.618 5.40868 103.69 5.55043 103.79 5.67118C103.891 5.79189 104.017 5.8885 104.16 5.95379C104.315 5.97647 104.474 5.96152 104.622 5.91017C104.771 5.85886 104.905 5.77268 105.014 5.65881C105.367 5.10227 105.681 4.52159 105.953 3.92114L105.951 3.93878Z" fill="#BA0017"/>
<path d="M70.7643 6.15633L71.4363 5.83591C71.5473 6.00946 71.6007 6.20974 71.7255 6.28093C71.9968 6.4189 72.3485 6.62807 72.5933 6.5524C72.7458 6.49496 72.8825 6.40265 72.9932 6.28291C73.1038 6.16313 73.1845 6.01921 73.2297 5.86259C73.2241 5.69655 73.1815 5.53391 73.1042 5.38674C73.0272 5.23953 72.918 5.11168 72.7846 5.01261C72.4733 4.85583 72.1351 4.75919 71.7876 4.7278C70.8977 4.52752 70.4971 4.1537 70.4037 3.49506C70.3842 3.20742 70.4511 2.92051 70.5965 2.67142C70.7415 2.42233 70.9583 2.22248 71.218 2.09767C71.5189 1.92756 71.8664 1.85947 72.2091 1.9036C72.5514 1.94772 72.8706 2.1017 73.1184 2.34244C73.1718 2.39944 73.2211 2.46042 73.2652 2.52489L72.8781 2.88538C72.5066 2.77927 72.1205 2.7327 71.7345 2.74741C71.6138 2.80598 71.5091 2.89281 71.4292 3.00051C71.3496 3.10821 71.2969 3.2336 71.2759 3.366C71.2759 3.53511 71.5517 3.81103 71.7655 3.9134C72.0432 4.0094 72.3317 4.07069 72.6243 4.09584C73.5855 4.28722 74.093 4.87463 74.0706 5.77361C74.0594 6.17535 73.9017 6.55912 73.627 6.8526C73.3523 7.14604 72.9801 7.32894 72.5798 7.3668C71.761 7.50029 71.1111 7.08199 70.7643 6.15633Z" fill="#BA0017"/>
<path d="M97.1544 5.14634L97.0875 5.8762L93.5984 5.62252C93.7498 5.43563 93.8477 5.29765 93.9636 5.1775C94.7114 4.38534 95.4812 3.60655 96.1887 2.79214C96.6738 2.25366 96.6827 1.73743 96.2866 1.36361C95.7301 0.838477 95.0941 1.06545 94.6979 1.9822L94.0215 1.93325C94.0092 1.62639 94.0914 1.32315 94.2566 1.06449C94.4221 0.805821 94.6632 0.604213 94.9472 0.486903C95.2809 0.371053 95.6408 0.351344 95.9854 0.430027C96.3299 0.508709 96.6457 0.682614 96.8961 0.931932C97.1245 1.14016 97.2777 1.41774 97.3326 1.72179C97.3872 2.02583 97.3401 2.33943 97.1988 2.61414C96.9817 3.02081 96.7108 3.3965 96.3935 3.73116C96.0373 4.14504 95.6412 4.52331 95.1965 4.99057L97.1544 5.14634Z" fill="#BA0017"/>
<path d="M111.618 2.8364C110.091 4.42069 108.641 5.92045 107.141 7.46469L106.433 6.77933L110.252 3.31702L107.603 2.69398L107.773 1.98193L111.618 2.8364Z" fill="#BA0017"/>
<path d="M76.0513 6.62345L75.268 6.75697L74.3913 1.58574L75.1701 1.41663C75.4504 3.14334 75.7486 4.8567 76.0513 6.62345Z" fill="#BA0017"/>
</g>
<defs>
<clipPath id="clip0_420_33000">
<rect width="182" height="73.6222" fill="white"/>
</clipPath>
</defs>
</svg>
