<svg width="15" height="14" viewBox="0 0 15 14" fill="none" xmlns="http://www.w3.org/2000/svg">
<path d="M5.80749 13.3333C5.36546 13.3333 4.94154 13.1577 4.62898 12.8452C4.31642 12.5326 4.14082 12.1087 4.14082 11.6667C4.14082 11.2246 4.31642 10.8007 4.62898 10.4882C4.94154 10.1756 5.36546 10 5.80749 10C6.24952 10 6.67344 10.1756 6.986 10.4882C7.29856 10.8007 7.47416 11.2246 7.47416 11.6667C7.47416 12.1087 7.29856 12.5326 6.986 12.8452C6.67344 13.1577 6.24952 13.3333 5.80749 13.3333ZM11.6408 13.3333C11.1988 13.3333 10.7749 13.1577 10.4623 12.8452C10.1498 12.5326 9.97416 12.1087 9.97416 11.6667C9.97416 11.2246 10.1498 10.8007 10.4623 10.4882C10.7749 10.1756 11.1988 10 11.6408 10C12.0829 10 12.5068 10.1756 12.8193 10.4882C13.1319 10.8007 13.3075 11.2246 13.3075 11.6667C13.3075 12.1087 13.1319 12.5326 12.8193 12.8452C12.5068 13.1577 12.0829 13.3333 11.6408 13.3333ZM0.775823 1.6025C0.567791 1.59579 0.370524 1.50843 0.225738 1.3589C0.0809525 1.20937 0 1.00939 0 0.80125C0 0.59311 0.0809525 0.393129 0.225738 0.243598C0.370524 0.094067 0.567791 0.00670984 0.775823 0L1.73499 0C2.48666 0 3.13666 0.521667 3.29999 1.255L4.34416 5.95667C4.50749 6.69 5.15749 7.21167 5.90916 7.21167H12.1692L13.3708 2.40333H5.58332C5.37725 2.39393 5.18273 2.30545 5.04023 2.15629C4.89772 2.00714 4.8182 1.80879 4.8182 1.6025C4.8182 1.39621 4.89772 1.19786 5.04023 1.04871C5.18273 0.899551 5.37725 0.81107 5.58332 0.801667H13.3708C13.6144 0.801595 13.8549 0.857065 14.0738 0.963862C14.2928 1.07066 14.4845 1.22597 14.6344 1.41799C14.7843 1.61 14.8885 1.83368 14.939 2.072C14.9895 2.31032 14.985 2.55701 14.9258 2.79333L13.7242 7.6C13.6375 7.94683 13.4374 8.25473 13.1556 8.47474C12.8739 8.69475 12.5266 8.81423 12.1692 8.81417H5.90916C5.17982 8.81426 4.47226 8.5656 3.90333 8.10925C3.33441 7.6529 2.93815 7.01615 2.77999 6.30417L1.73499 1.6025H0.775823Z" fill="#0E1B33"/>
</svg>
