<svg width="50" height="60" viewBox="0 0 50 60" fill="none" xmlns="http://www.w3.org/2000/svg">
<path d="M13.4884 3.53341C13.495 3.4359 13.5208 3.34061 13.5643 3.25309C13.7025 3.11416 13.7998 2.93997 13.8457 2.74951C13.897 2.53477 14.0114 2.34025 14.1741 2.19108C14.3728 1.98448 14.4834 1.69182 14.6208 1.43171C14.6911 1.30215 14.7324 1.15472 14.8039 1.02737C15.0765 0.568423 15.3154 0.349482 15.8805 0.692308C16.3206 0.96043 16.8142 1.12118 17.2005 1.50308C17.4161 1.71536 17.7589 1.80128 18.0538 1.93084C18.5731 2.15976 18.8891 2.58753 19.1706 3.04772C19.2555 3.18615 19.3482 3.32126 19.4654 3.50223C20.1489 2.85442 20.7631 2.21783 21.4343 1.65053C22.1055 1.08322 22.741 0.446623 23.5383 0C23.708 0.13289 23.8466 0.231138 23.9716 0.342825C24.0442 0.408653 24.0833 0.520347 24.1626 0.566205C24.7215 0.911249 24.9767 1.47966 25.2848 2.01233C25.3465 2.12402 25.3761 2.2648 25.4661 2.33408C26.223 2.91926 26.4843 3.84062 27.0008 4.58766C27.2301 4.92272 27.4643 5.21537 27.8477 5.38179L28.6995 4.54192C28.7747 4.44367 28.8672 4.35873 28.972 4.29068C29.6142 4.00469 30.079 3.46869 30.6596 3.09788C30.7829 3.01554 30.9135 2.94626 31.0504 2.89128C31.3697 2.7595 31.6754 2.59949 31.9638 2.41334C32.7109 1.9756 33.4777 1.57458 34.237 1.15915C34.4343 1.04746 34.6315 1.06201 34.7782 1.23287C35.0962 1.59813 35.4254 1.92641 35.561 2.44576C35.7595 3.18948 35.8359 3.93997 35.9296 4.69379C35.9296 4.71833 35.9296 4.74409 35.9357 4.76862L36.4523 8.01961C36.7198 8.26862 37.0095 8.44725 37.4311 8.41606C37.6653 8.39819 37.9155 8.56572 38.1485 8.54329C38.861 8.47302 39.5058 8.71648 40.1702 8.88734C40.5758 8.99003 40.99 9.05265 41.3993 9.13191C41.7346 9.19663 42.0686 9.30167 42.4039 9.30943C42.8046 9.31954 43.0746 9.60208 43.4259 9.71377C43.7489 9.81645 44.0373 10.0264 44.3406 10.1906C45.1283 10.615 45.8322 11.1566 46.5521 11.6859C47.4089 12.3169 47.7651 13.2103 48.0598 14.1429C48.2003 14.5896 48.0031 15.0173 47.7331 15.3892C47.6468 15.5087 47.5383 15.6126 47.4422 15.7243C47.3423 15.8353 47.2696 15.9678 47.2289 16.1115C47.1882 16.2551 47.1808 16.4061 47.2079 16.5529C47.2314 16.7493 47.2425 16.947 47.24 17.1447C47.2585 17.9087 47.2264 18.6782 47.2992 19.4364C47.4175 20.6571 47.3152 21.8599 47.1525 23.0649C47.0921 23.5116 47.0502 23.9516 46.975 24.3915C46.864 25.0237 46.737 25.6535 46.6138 26.2845C46.5953 26.3827 46.5497 26.4735 46.4819 26.5469C46.4141 26.6201 46.3265 26.6729 46.2304 26.6989C44.9163 27.1456 43.5787 27.4806 42.1857 27.5744C41.4449 27.6224 40.7052 27.6962 39.9643 27.7487C39.6451 27.7721 39.3221 27.7878 39.0016 27.7799C37.9636 27.7542 36.9281 27.8123 35.8877 27.7799C34.3344 27.7229 32.7738 27.8 31.2168 27.8291C29.9545 27.8525 28.6909 27.829 27.4311 27.9496C27.1401 27.9776 26.8406 27.8915 26.5435 27.8871C26.075 27.8805 25.6041 27.9006 25.1357 27.9061C24.4195 27.914 23.7036 27.9061 22.9889 27.9295C22.4986 27.9418 22.0117 28.0412 21.5281 27.8346C21.3629 27.7665 21.145 27.8235 20.9497 27.8235C21.0322 28.584 21.2523 28.7972 21.9547 28.7917C22.4741 28.7917 22.9944 28.7716 23.5182 28.7661C23.6417 28.7681 23.765 28.7796 23.8868 28.8007C25.2799 29.0157 26.6852 29.1418 28.0943 29.1782C28.342 29.1877 28.5898 29.1821 28.8376 29.1614C29.8731 29.0497 30.9136 29.091 31.9503 29.0431C32.5149 29.0173 33.0807 28.9626 33.6478 28.9537C34.2148 28.9447 34.7807 28.8934 35.3477 28.8911C36.361 28.8851 37.3756 28.893 38.3901 28.9146C39.4552 28.9213 40.5178 28.8432 41.5694 28.6811C42.1068 28.6063 42.6641 28.6734 43.183 28.4634C44.2062 28.4087 45.1665 28.0648 46.1564 27.7833C46.1848 27.8659 46.239 27.9396 46.223 27.9955C46.0898 28.4935 46.0553 29.0173 45.8322 29.4954C45.7459 29.7011 45.6806 29.9156 45.6399 30.1353C45.4747 30.8113 45.2245 31.4638 44.8953 32.0773C44.3998 32.0792 43.9079 32.1692 43.4444 32.3431C42.7886 32.5665 42.1155 32.7217 41.4042 32.6904C41.0923 32.6758 40.773 32.7797 40.4574 32.8389C40.1431 32.8981 39.8312 32.9762 39.5144 33.031C38.5652 33.1952 37.5987 33.2064 36.6495 33.4095C36.0775 33.5325 35.4661 33.4744 34.8731 33.4867C34.3282 33.4978 33.7834 33.509 33.2397 33.4967C32.1759 33.4711 31.1108 33.4331 30.0469 33.3906C29.7757 33.3795 29.507 33.3348 29.2358 33.3035C29.1618 33.2885 29.0879 33.2773 29.0127 33.27C28.2718 33.27 27.5321 33.27 26.7235 33.27C26.9688 33.4442 27.2055 33.4532 27.4347 33.4822L30.3083 33.8596C30.3835 33.8676 30.4587 33.8814 30.5314 33.9011C31.6791 34.2494 32.8773 34.236 34.0546 34.3867C34.3997 34.4194 34.7474 34.4235 35.0938 34.3991C35.4932 34.3845 35.8815 34.3902 36.2575 34.5655C36.398 34.6089 36.5447 34.6253 36.6902 34.6134C36.79 34.616 36.8899 34.6044 36.986 34.5789C38.326 34.2048 39.7363 34.2439 41.0627 33.8161C41.1552 33.7794 41.2526 33.7564 41.3512 33.7479C42.1747 33.7313 42.9722 33.5514 43.776 33.394C43.8499 33.3887 43.9251 33.3917 43.9991 33.4029C44.0644 33.7905 43.5985 33.9613 43.6231 34.3633C44.2247 34.3333 44.8103 34.2907 45.397 34.2785C46.0134 34.2662 46.6359 34.2181 47.2363 34.4282C47.3509 34.4711 47.473 34.4919 47.595 34.4896C48.0709 34.4717 48.4518 34.7308 48.8401 34.9363C49.1754 35.1083 49.2863 35.4835 49.3184 35.8207C49.3517 36.14 49.3135 36.4629 49.2062 36.765C49.1113 37.0189 49.0546 37.2839 49.0361 37.5527C48.9917 38.158 48.7291 38.6991 48.4851 39.2378C48.3729 39.4893 48.241 39.726 48.2619 40.0132C48.2681 40.0625 48.2644 40.1131 48.2484 40.1612C47.8786 41.0389 47.7639 41.998 47.2104 42.8325C46.4153 44.0344 45.3514 44.5547 43.9609 44.4906C43.6774 44.4708 43.3938 44.4869 43.114 44.5362C43.5788 45.5778 43.7217 46.691 44.1581 47.6994C44.5958 48.709 44.7042 49.7963 44.9409 50.8269C44.8534 51.0438 44.6784 51.0709 44.5045 51.0956C43.8179 51.1868 43.1313 51.2731 42.4446 51.3668C41.8061 51.4519 41.1724 51.5554 40.5339 51.6294C39.9754 51.6935 39.401 51.7231 38.8364 51.7773C37.9747 51.8624 37.113 51.9548 36.2513 52.046C35.5129 52.1262 34.7745 52.2051 34.0361 52.2938C33.792 52.3234 33.5528 52.3838 33.3149 52.4282C33.1423 52.8005 33.1177 53.121 33.4444 53.4341C33.6515 53.4649 33.8623 53.4785 34.0718 53.4748C35.1813 53.3774 36.2982 53.3577 37.3941 53.1185C38.0228 52.9706 38.6663 52.9028 39.3122 52.9164C39.56 52.9188 39.8066 52.9003 40.0519 52.8633C40.9863 52.7524 41.9207 52.6501 42.8514 52.5194C43.5134 52.427 44.1692 52.2951 44.8275 52.1841C45.2146 52.1188 45.3539 52.1989 45.418 52.5453C45.4895 52.8855 45.5376 53.2295 45.5635 53.5759C45.6091 54.4277 45.3317 55.139 44.576 55.6037C43.9868 55.9625 43.3963 56.3249 42.7121 56.4975C42.3534 56.5899 42.0144 56.7514 41.6594 56.8587C41.2353 56.9856 40.8014 57.0892 40.3711 57.2026C40.0605 57.284 39.7523 57.3764 39.4392 57.4442C38.8598 57.5675 38.2804 57.7315 37.6936 57.7795C36.8541 57.8436 36.0245 57.9694 35.1936 58.0939C34.5082 58.1974 33.8167 58.2578 33.1263 58.3318C32.4631 58.4033 31.7937 58.444 31.133 58.5426C30.6423 58.6166 30.1554 58.693 29.6574 58.6449C28.9671 58.8828 28.2249 58.7004 27.5297 58.9038C27.4335 58.9297 27.3349 58.9445 27.2363 58.9482C26.1724 59.0172 25.1135 59.0899 24.0453 59.1491C23.5517 59.1775 23.057 59.1799 22.5633 59.1922C21.154 59.228 19.7447 59.3537 18.3375 59.2379C17.3535 59.1738 16.3767 59.0283 15.4171 58.8015C15.3435 58.7916 15.273 58.7657 15.2105 58.7263C14.8854 58.444 14.4845 58.4304 14.0936 58.3984C13.2952 58.3367 12.5502 58.0507 11.792 57.8301C11.1968 57.6587 10.6026 57.5059 9.99291 57.3838C8.58574 57.1052 7.17634 56.8254 5.81268 56.3643C5.48231 56.2608 5.15797 56.14 4.84116 56.0007C4.32069 55.7566 3.89639 55.3732 3.47417 54.996C3.174 54.7445 2.9362 54.4265 2.77951 54.0665C2.55824 53.5611 2.5273 52.9928 2.69249 52.4664C2.88344 51.8759 3.00733 51.2719 3.18164 50.6789C3.2185 50.5791 3.26177 50.4805 3.3112 50.3843C3.82378 50.4533 4.2582 50.7011 4.71271 50.87C5.31466 51.0968 5.93386 51.2756 6.56429 51.4038C7.00105 51.4901 7.4309 51.6109 7.86766 51.6996C8.61927 51.8525 9.37087 52.0103 10.128 52.1286C10.8852 52.247 11.6513 52.3234 12.4151 52.4109C13.7196 52.5576 15.0262 52.6846 16.3239 52.8486C17.5814 53.0063 18.8434 53.0174 20.1065 53.0199C20.4537 53.0199 20.8011 53.0199 21.1473 53.0285C21.2713 53.0285 21.3963 53.0495 21.5192 53.0409C22.5834 52.9706 23.6478 52.9657 24.7129 52.9866C24.8127 52.9842 24.9101 52.9657 25.005 52.9348C25.0445 52.9238 25.0753 52.8732 25.116 52.8399C24.7091 52.5539 24.2464 52.3924 23.7762 52.2568C23.5628 52.1915 23.3496 52.1274 23.1407 52.051C22.6945 51.8919 22.2238 51.8143 21.7503 51.8192C20.2148 51.8106 18.6781 51.8303 17.1481 51.6725C16.3373 51.5887 15.5076 51.5801 14.7202 51.3952C13.7755 51.172 12.8217 51.0475 11.8679 50.9082C11.0862 50.7973 10.3145 50.6198 9.53939 50.462C8.83586 50.3177 8.12112 50.2265 7.41759 50.0971C6.37334 49.9048 5.31465 49.7766 4.30849 49.4104C4.07723 49.3266 3.82933 49.2687 3.66623 48.9728L4.39996 46.9265C4.3509 46.6368 4.10854 46.3754 3.79357 46.225C3.04986 45.8663 2.45346 45.2968 1.79012 44.832C1.37703 44.5547 1.03457 44.1848 0.789625 43.7509C0.544802 43.3182 0.404388 42.8338 0.37961 42.337C0.319329 41.4975 0.314771 40.6617 0.318223 39.816C0.321552 38.9716 0.619752 38.2159 1.01275 37.4935C1.28284 36.9943 1.57845 36.5098 1.89847 36.0413C2.14971 35.6777 2.41993 35.3204 2.80306 35.0657C3.12518 34.8749 3.36273 34.5687 3.46751 34.2092C3.558 33.8887 3.79024 33.6073 3.98452 33.2645C4.23699 33.3157 4.50388 33.3515 4.75967 33.4274C5.83068 33.736 6.93115 33.9317 8.04296 34.0115C8.85041 34.0752 9.67006 33.9735 10.4843 33.9401C10.5493 33.9256 10.611 33.8991 10.6662 33.862C10.7512 33.7044 10.673 33.6095 10.5803 33.5269C10.2351 33.2075 9.91019 32.8457 9.37309 32.9003C8.54555 32.6111 7.6666 32.6189 6.81897 32.4537C6.23564 32.3364 5.66217 32.1748 5.10361 31.9701C4.59486 31.776 4.06403 31.6459 3.52335 31.5825C3.41117 31.5789 3.30331 31.5384 3.21665 31.467C3.12999 31.3957 3.06934 31.2977 3.04419 31.1884C2.80529 30.4333 2.54173 29.6852 2.31503 28.9257C2.10842 28.2378 1.93977 27.5387 1.74648 26.8474C1.66191 26.6093 1.6343 26.3544 1.6661 26.1036C2.42436 26.1203 3.04197 26.5581 3.77237 26.6039C4.47935 26.6475 5.17166 26.8977 5.8742 27.0428C6.5543 27.1847 7.23552 27.3187 7.91895 27.4359C8.64084 27.5709 9.37494 27.6286 10.109 27.6079C10.2412 27.4113 10.2923 27.1713 10.2519 26.9379C10.0285 26.7435 9.7561 26.7044 9.48699 26.6631C9.19323 26.6174 8.9007 26.5638 8.60805 26.5101C7.78051 26.3616 6.9452 26.2455 6.12765 26.0523C4.85003 25.7508 3.58252 25.4056 2.31613 25.0617C2.01188 24.9613 1.71357 24.844 1.42264 24.7098C1.37802 24.4295 1.31885 24.1884 1.30541 23.9438C1.28199 23.5216 1.24956 23.1073 1.06749 22.7153C1.01719 22.5766 0.993648 22.4295 0.998333 22.282C0.955803 21.2691 1.11001 20.2628 1.12444 19.2499C1.12444 18.9327 1.18373 18.6157 1.20715 18.2974C1.22059 18.1609 1.19939 18.0232 1.14552 17.8971C1.09165 17.771 1.00683 17.6605 0.898846 17.5758C0.340537 17.1213 0.207646 16.4513 0.00547595 15.817C-0.00944024 15.6963 0.00621775 15.5737 0.0512129 15.4607C0.332278 14.2726 0.963687 13.1964 1.86384 12.3717C2.34288 11.9454 2.843 11.5437 3.36248 11.1678C3.66734 10.9579 3.99525 10.7837 4.33968 10.6484C5.20297 10.2754 6.07292 9.91816 6.9452 9.56744C7.16858 9.47696 7.44434 9.4825 7.64762 9.36194C8.35004 8.94873 9.16192 8.96216 9.91352 8.74323C10.3547 8.61589 10.8159 8.46734 11.3017 8.59246C11.4569 8.63265 11.5776 8.49755 11.6312 8.34678C11.6582 8.25125 11.6751 8.15324 11.6814 8.05413C11.7979 7.24397 11.9912 6.44676 12.2588 5.67321C12.4107 5.20637 12.6228 4.75962 12.8172 4.30844C12.9601 3.98127 13.2639 3.78255 13.4872 3.52676C13.4773 3.57027 13.4694 3.61046 13.4616 3.65077C13.4739 3.60824 13.4817 3.5736 13.4884 3.53341ZM15.1569 1.46289C15.1646 1.42271 15.1725 1.38364 15.1792 1.34345L15.1524 1.45514C15.1858 1.70637 14.9291 1.75888 14.833 1.91865C14.7213 2.10282 14.8028 2.35195 14.6097 2.53058C14.495 2.65866 14.4314 2.82434 14.4309 2.99631C14.4309 3.37156 14.2154 3.64067 14.039 3.93443C13.8491 4.25038 13.6402 4.55758 13.4806 4.89029C13.2572 5.35602 13.284 5.91112 12.9658 6.34221C13.0417 7.03452 12.6943 7.62538 12.5078 8.25519C12.2845 9.02245 12.3851 9.81868 12.3449 10.6005C12.3366 10.7005 12.3592 10.8006 12.4095 10.8873C12.4598 10.9742 12.5354 11.0435 12.6262 11.0863C13.2896 11.4369 13.9574 11.7653 14.7414 11.5329C15.0303 11.4556 15.3364 11.4728 15.6147 11.5821C15.7264 11.619 15.8381 11.6435 15.9688 11.677C16.0316 11.5882 16.0838 11.4922 16.124 11.3912C16.3049 10.6206 16.4802 9.84925 16.65 9.07718C16.8122 8.32607 17.1153 7.61244 17.5435 6.97424C17.6449 6.83593 17.7206 6.68048 17.7668 6.5153C17.8926 6.01012 18.1338 5.54105 18.4715 5.14497C18.7011 4.87525 18.8577 4.55105 18.926 4.20354C18.7328 3.76517 18.4658 3.36317 18.1364 3.01529C17.8271 2.69034 17.5501 2.35306 17.1034 2.20784C16.9921 2.15471 16.8907 2.08248 16.8041 1.99458C16.5171 1.76221 16.2334 1.52663 15.9006 1.25407C15.6717 1.31546 15.4149 1.39029 15.1569 1.46289ZM41.2538 19.2589C41.3426 18.6603 41.4054 18.1276 41.1416 17.6094C41.0368 17.4028 41.059 17.1827 41.0812 16.956C41.1219 16.5094 41.3746 16.1821 41.6557 15.8638C41.721 15.7891 41.8073 15.7345 41.9022 15.7063C41.9984 15.6779 42.0995 15.6773 42.1956 15.7042C42.5667 15.7746 42.8009 16.0291 43.0018 16.3184C43.1128 16.4803 43.183 16.6735 43.3014 16.831C43.6354 17.2866 44.1606 17.252 44.4182 16.7427C44.5539 16.4503 44.7733 16.2037 45.0469 16.0324C45.4266 15.7991 45.8075 15.5713 46.1959 15.3523C46.7888 15.0173 47.0403 14.4947 46.8393 13.857C46.7 13.4191 46.6101 12.9401 46.1798 12.6509C46.0997 12.5936 46.0356 12.5167 45.9937 12.4275C45.8371 12.0925 45.5462 11.8982 45.2602 11.7072C44.6401 11.3009 43.9942 10.935 43.3273 10.6116C42.7294 10.3193 42.0884 10.1212 41.4288 10.0242C40.6004 9.89683 39.7622 9.85332 38.9461 9.62662C38.5874 9.53318 38.2212 9.46525 37.8527 9.42334C37.3485 9.35751 37.0267 9.56967 37.0575 10.0498C37.0847 10.4687 36.8936 10.7568 36.7235 11.0817C36.6224 11.2773 36.5324 11.4793 36.4338 11.677C36.2106 12.117 35.9086 12.4253 35.3921 12.5336C34.7079 12.6584 34.041 12.86 33.4025 13.1344C33.2434 13.2007 33.0733 13.2386 32.902 13.2461C32.1364 13.3055 31.3684 13.2939 30.6054 13.2114C30.1246 13.1579 29.6586 13.1389 29.2407 13.5398C28.9498 13.8191 28.5368 13.9866 28.1571 14.1518C27.2412 14.5539 26.2871 14.8062 25.2738 14.7895C25.0777 14.7895 24.8805 14.832 24.6833 14.8442C24.5114 14.8578 24.3391 14.8607 24.1671 14.8532C23.2279 14.7928 22.2898 14.7158 21.3505 14.6667C20.9987 14.6477 20.6671 14.6309 20.361 14.4188C20.2115 14.3319 20.0435 14.2813 19.8708 14.2713C19.4069 14.2051 18.9553 14.0708 18.5306 13.8727C18.4569 13.8403 18.3263 13.8604 18.3553 13.6917C18.4233 13.6831 18.4922 13.6873 18.5586 13.704C19.4866 14.1719 20.4996 14.2824 21.508 14.3215C22.7443 14.3685 23.9839 14.3484 25.2207 14.306C25.7348 14.27 26.2427 14.1786 26.7358 14.0334C27.2819 13.8906 27.812 13.6873 28.3457 13.4997C28.4333 13.4555 28.5097 13.393 28.5689 13.3165C28.9658 12.9021 29.0016 12.8229 29.0891 12.2097C29.1039 12.0123 29.1322 11.8161 29.1729 11.6223C29.3011 11.1387 29.2037 10.7054 28.9892 10.2599C28.3248 8.87723 27.4951 7.59185 26.7074 6.2807C26.3918 5.7558 26.0072 5.27565 25.6596 4.76418C25.4673 4.48497 25.2848 4.1991 25.1012 3.92765C24.7424 3.9936 24.936 4.40114 24.6845 4.50728C24.0509 4.44922 24.0509 4.44922 24.0398 3.89868C24.0398 3.84949 24.0398 3.8003 24.0398 3.75124C24.033 3.34135 24.0855 3.2934 24.5457 3.2632C24.5848 3.2632 24.6216 3.21179 24.6981 3.15817C24.6845 3.01419 24.7178 2.82323 24.6451 2.68245C24.3316 2.06879 23.9339 1.50197 23.4635 0.998396C23.4334 0.968194 23.3708 0.970418 23.4121 0.980527C23.1295 1.21056 22.8538 1.38474 22.6393 1.61822C22.0094 2.31398 21.4388 3.07003 20.7799 3.73226C20.3387 4.179 20.1422 4.79538 19.6396 5.1774C19.3046 5.89548 18.954 6.60233 18.6602 7.33384C18.505 7.71808 18.3163 8.0386 17.9801 8.21611C17.9801 8.43948 18.0269 8.64277 17.9722 8.81695C17.7276 9.59309 17.4563 10.3626 17.1905 11.132C17.0278 11.5491 16.9691 11.9995 17.0197 12.4443C17.0361 12.6429 17.1294 12.8272 17.2799 12.958C17.3994 13.0585 17.5914 13.1132 17.5735 13.3857C17.3703 13.3008 17.1972 13.2238 17.0152 13.1568C16.4367 12.9412 15.8661 12.7033 15.2774 12.5225C14.7135 12.3494 14.1082 12.3181 13.5788 12.0188C13.516 11.9805 13.4418 11.9653 13.3689 11.9752C13.0338 12.0444 12.7983 11.8635 12.5526 11.6982C12.4509 11.6267 12.3493 11.5207 12.2387 11.5073C11.8087 11.4548 11.6803 11.1243 11.5754 10.7959C11.4839 10.5159 11.3382 10.2568 11.1465 10.0332C10.5949 9.36305 10.0934 9.21451 9.32612 9.53613C8.96209 9.68801 8.61138 9.89239 8.23392 9.98842C7.63308 10.1403 7.11717 10.4228 6.58783 10.7345C5.88985 11.1433 5.13603 11.4839 4.40563 11.8289C3.24414 12.375 2.40206 13.2383 1.69076 14.2623C1.58721 14.3993 1.51682 14.5583 1.48526 14.727C1.4272 15.0941 1.41512 15.467 1.44951 15.837C1.50758 16.239 1.63369 16.6489 2.08043 16.8712C2.31503 16.6758 2.61322 16.6099 2.78741 16.3419C3.05762 15.9231 3.44964 15.6126 3.817 15.2865C4.05862 15.0734 4.32439 14.8893 4.60891 14.7382C5.45087 14.2847 6.58105 15.1368 6.59227 15.99C6.60127 16.981 6.40391 17.963 6.01263 18.8735C5.86976 19.2142 5.68435 19.537 5.52902 19.8719C5.4754 19.982 5.44397 20.1016 5.43645 20.2238C5.43189 20.445 5.44311 20.6663 5.46986 20.886C5.48588 21.0037 5.52373 21.1174 5.58154 21.2211C5.65933 21.3552 5.7704 21.4669 5.90403 21.5454C6.03766 21.6238 6.1894 21.6664 6.34436 21.669C6.49932 21.6716 6.65231 21.6341 6.78852 21.5601C6.92474 21.4861 7.03938 21.3781 7.12161 21.2467C7.43546 20.771 7.74476 20.2986 7.85755 19.7245C7.92461 19.3896 8.00721 19.0479 8.10324 18.7195C8.1544 18.505 8.23762 18.2993 8.35004 18.1097C8.55924 17.8032 8.78631 17.5093 9.03014 17.2297C9.12962 17.1181 9.25277 17.0302 9.39047 16.9723C9.52829 16.9143 9.67721 16.8877 9.8265 16.8946C10.3704 16.8946 10.8205 17.3514 10.8907 17.931C10.9421 18.3532 11.0282 18.7641 11.2951 19.1104C11.562 19.4565 11.7898 19.8028 12.0968 20.0831C12.5202 20.4695 12.9501 20.6648 13.4951 20.0373C13.5473 19.9841 13.5947 19.9265 13.6369 19.8653C13.8391 19.5302 14.0836 19.2019 14.2232 18.8367C14.4466 18.2303 14.8799 17.7926 15.311 17.357C16.0045 16.6579 17.3044 16.7986 17.9421 17.5591C18.3531 18.0528 18.4 18.7027 18.7474 19.2164C18.7662 19.2624 18.772 19.3126 18.7641 19.3616C18.7641 19.853 18.7317 20.3454 18.7551 20.8346C18.7788 21.2035 18.8322 21.5699 18.9149 21.9303C18.9509 22.1015 19.032 22.2601 19.1498 22.3897C19.2676 22.5193 19.4177 22.615 19.5849 22.6673C19.7435 22.7276 19.9076 22.779 20.0617 22.827C20.1433 22.7746 20.2036 22.732 20.2661 22.6941C20.6815 22.4484 20.9183 22.1122 20.8983 21.603C20.8881 21.3338 20.9753 21.0613 20.9664 20.7922C20.9519 20.3567 21.145 19.9748 21.24 19.5704C21.3043 19.3576 21.4386 19.1727 21.6208 19.0455C21.9558 18.8077 22.3076 18.553 22.7688 18.5374C22.9947 18.6313 23.214 18.7399 23.4255 18.8624C23.8074 19.1126 24.2475 19.1974 24.6648 19.3516C25.0531 19.4923 25.3995 19.4007 25.7163 19.1673C25.8482 19.056 25.9727 18.9367 26.0898 18.8099C26.4818 18.4347 26.8812 18.0639 27.2646 17.6809C27.5247 17.4229 27.8292 17.3917 28.1584 17.4575C28.5997 17.5428 28.9979 17.7805 29.2826 18.1291C29.5662 18.4777 29.719 18.9151 29.7141 19.3649C29.724 19.8575 29.756 20.35 29.7955 20.8414C29.8386 21.3908 30.1455 21.7605 30.646 21.9581C30.7989 22.0173 31.0134 22.0698 31.1441 22.0027C31.4535 21.8554 31.7617 21.651 31.8689 21.3048C31.9799 20.9374 32.166 20.5867 32.0921 20.1646C32.0501 19.9055 32.15 19.6229 31.9219 19.4063C31.8492 18.8947 31.7863 18.3844 32.097 17.8685C32.1414 17.8405 32.2203 17.7813 32.3053 17.7345C32.9993 17.3615 33.4012 17.4094 33.9806 17.9489C34.1778 18.1332 34.3566 18.3376 34.539 18.534C35.0395 19.0645 35.6954 19.0177 36.1022 18.4034C36.276 18.1409 36.4621 17.8852 36.4892 17.5345C36.5299 17.2917 36.6285 17.0619 36.7752 16.8645C36.8591 16.7415 36.9663 16.6369 37.0908 16.5571C37.2166 16.4772 37.3559 16.4238 37.5026 16.4002C37.6493 16.3765 37.7984 16.3832 37.9427 16.4195C38.0869 16.456 38.2212 16.5216 38.3396 16.6121C39.4848 17.5469 39.3159 17.0588 39.6907 18.5263C39.7018 18.5749 39.7153 18.6226 39.7326 18.6692C39.9261 19.1618 40.291 19.3951 40.8248 19.3527C40.9703 19.3309 41.1133 19.2996 41.2538 19.2589ZM32.5802 44.7926C32.7109 44.0418 32.6172 43.8458 32.0711 43.6954C31.9306 43.6708 31.7851 43.6769 31.6458 43.7115C31.4769 43.7386 31.3117 43.8236 31.1465 43.8236C30.4279 43.8409 29.7116 43.8668 29.0114 44.0542C28.9387 44.069 28.8635 44.0788 28.7883 44.0813C27.9993 44.1528 27.2104 44.2268 26.4214 44.2946C26.0516 44.3266 25.6769 44.318 25.3132 44.3759C24.3875 44.514 23.4556 44.6015 22.5209 44.6409C21.6219 44.6915 20.7519 44.5744 19.8753 44.4043C19.3683 44.3056 18.8489 44.2761 18.3587 44.0948C17.5702 44.1478 16.8778 43.7152 16.114 43.6486C15.2205 43.2122 14.2455 43.0113 13.3466 42.5934C12.6915 42.2987 12.0573 41.9597 11.448 41.5801C10.7199 41.1128 9.98058 40.6654 9.24907 40.2031C8.68509 39.8456 8.08204 39.5325 7.57391 39.1047C6.84461 38.4871 6.04061 37.962 5.34029 37.3061C5.04628 37.0423 4.72799 36.8069 4.38997 36.6022C4.15773 36.4592 3.90809 36.3471 3.64725 36.2669C3.11458 36.0968 2.80529 36.2262 2.54616 36.7267C2.26251 37.2753 1.97207 37.8227 1.88947 38.4514C1.86605 38.6227 1.8504 38.8175 1.75992 38.9506C1.57797 39.2218 1.58351 39.5164 1.58462 39.8049C1.58462 40.4977 1.59806 41.1917 1.64712 41.8821C1.69076 42.2507 1.76546 42.6156 1.87049 42.9731C1.89626 43.0939 1.96344 43.2036 2.06034 43.2812C2.58302 43.6018 2.89687 44.1824 3.52113 44.387C3.81477 44.4832 4.04604 44.7556 4.32859 44.9011C5.55702 45.5384 6.78544 46.1843 8.03853 46.7736C9.19767 47.3197 10.3592 47.8769 11.6434 48.0889C12.0098 48.1493 12.3727 48.2332 12.7368 48.3121C13.6804 48.5105 14.6018 48.815 15.5656 48.9223C15.789 48.9457 16.0001 49.0246 16.2189 49.0677C16.4124 49.1084 16.6082 49.138 16.8052 49.1553C18.066 49.2489 19.3147 49.4117 20.5252 49.7975C20.7095 49.8567 20.8905 49.9257 21.0747 49.9874C21.8944 50.2573 22.7376 50.457 23.5316 50.8096C24.8238 51.3804 26.1638 51.8402 27.5346 52.1816C28.6367 52.4602 29.7683 52.6464 30.8433 53.0187C31.1774 53.1136 31.5225 53.1641 31.8702 53.1678C32.2005 53.1876 32.362 52.8917 32.1894 52.6094C32.1315 52.5009 32.0464 52.4097 31.9417 52.3431C31.7678 52.2531 31.5829 52.1853 31.3919 52.1422C31.0787 52.0695 30.7595 52.0312 30.4439 51.9659C30.3477 51.9474 30.254 51.9018 30.2812 51.7563C30.3428 51.7243 30.4081 51.7021 30.4759 51.6922C31.3167 51.7243 32.1574 51.7526 32.9969 51.8044C33.5886 51.8389 34.0114 51.569 34.4244 51.1289C34.0731 50.8651 33.6416 50.7307 33.2028 50.7492C32.5839 50.7652 32.0378 50.5433 31.4658 50.388C31.0196 50.2647 30.6707 49.9911 30.3551 49.673C30.2873 49.6052 30.2935 49.4634 30.2577 49.3266C30.3699 49.2995 30.4833 49.2835 30.5992 49.281C31.0639 49.3365 31.5287 49.4006 31.9934 49.4671C33.0351 49.6126 34.0657 49.4203 35.0987 49.355C35.2269 49.3476 35.3465 49.2292 35.5462 49.1207C35.0864 48.8804 34.7412 48.6535 34.2604 48.6387C33.702 48.6227 33.1362 48.4933 32.5802 48.3836C32.2424 48.3096 31.9096 48.2134 31.5842 48.0976C31.4892 48.0643 31.4116 47.9952 31.3672 47.9065C31.3216 47.8177 31.3117 47.7142 31.3401 47.618C31.361 47.5453 31.4103 47.4837 31.4757 47.4442C31.541 47.406 31.6187 47.3937 31.6926 47.4097C32.0871 47.4454 32.4791 47.5009 32.8674 47.5773C33.8795 47.8116 34.9298 47.819 35.9444 47.5983C36.0775 47.5761 36.2045 47.5268 36.3191 47.4553C36.4325 47.3826 36.5312 47.2889 36.6076 47.1779C36.6877 47.0571 36.6446 46.8562 36.6557 46.7021C35.8482 46.3163 35.0149 46.3828 34.2161 46.3199C33.257 46.2435 32.2868 46.3199 31.3228 46.299C30.8371 46.2891 30.3674 46.1239 29.9816 45.8281C29.9348 45.5557 30.0457 45.3966 30.2429 45.3103C30.4242 45.2339 30.614 45.1784 30.8088 45.1414C31.3882 45.0169 31.97 44.9097 32.5802 44.7926ZM9.24575 31.3213C9.30542 31.4451 9.37839 31.5618 9.46345 31.6697C9.98059 32.1678 10.5055 32.6581 11.0271 33.1472C11.1148 33.236 11.2153 33.3112 11.3251 33.3705C11.8836 33.6386 12.3928 33.9993 13.0383 34.054C13.2226 34.0685 13.4035 34.1858 13.5755 34.2774C13.6782 34.332 13.6627 34.5399 13.5543 34.5923C13.4499 34.655 13.3327 34.6932 13.2115 34.7039C12.8897 34.7039 12.5681 34.6593 12.2465 34.6403C12.05 34.628 11.8523 34.6247 11.6558 34.6269C11.6222 34.6269 11.5898 34.6727 11.4748 34.7576C11.9192 34.987 12.3954 35.1485 12.8875 35.2367C13.4716 35.3305 14.077 35.2701 14.6465 35.4767C14.7205 35.4882 14.7958 35.4882 14.8699 35.4767C15.1657 35.4857 15.4606 35.4968 15.7566 35.5036C16.1021 35.5296 16.449 35.5344 16.7952 35.518C17.721 35.4266 18.6189 35.6752 19.5335 35.7134C19.5832 35.7171 19.6316 35.7307 19.6765 35.7529C20.0853 35.9452 20.5274 35.9957 20.9664 36.0759C21.2803 36.1387 21.5878 36.2299 21.8854 36.3495C22.6672 36.6417 23.4378 36.9979 24.2396 37.242C25.2109 37.5231 26.1663 37.8547 27.1031 38.2344C27.4446 38.3774 27.754 38.5931 28.0943 38.7373C29.2567 39.2341 30.4106 39.7507 31.5928 40.1895C33.0228 40.7245 34.385 41.4901 35.9481 41.6146C35.9727 41.6195 35.9961 41.6269 36.0196 41.6368C36.6988 41.8599 37.3805 42.0842 38.0573 42.3246C38.4764 42.4726 38.8869 42.6328 39.3369 42.6895C39.6796 42.7314 40.0161 42.8116 40.3416 42.9274C41.0652 43.1949 41.7826 43.4637 42.5753 43.3749C43.0684 43.582 43.596 43.3885 44.1027 43.4994C44.2802 43.5389 44.4959 43.4723 44.6796 43.407C44.957 43.3022 45.2294 43.1826 45.4957 43.0495C45.7743 42.9324 46.0085 42.7302 46.165 42.4713C46.4313 41.998 46.7309 41.5258 46.8936 41.0192C47.1845 40.1032 47.4927 39.1873 47.6751 38.2405C47.6924 38.0926 47.7331 37.9484 47.796 37.8128C48.1189 37.2543 48.0302 36.6121 48.2287 36.0265C48.2989 35.8194 48.183 35.6284 47.9969 35.5226C47.8527 35.4294 47.6887 35.3678 47.5186 35.3416C46.7555 35.2614 45.9851 35.27 45.2245 35.3674C43.5886 35.6321 41.9367 35.7812 40.2799 35.8145C39.2173 35.8256 38.1584 35.8663 37.0921 35.8872C36.9417 35.8823 36.7925 35.8663 36.6446 35.8416C35.7348 35.7442 34.8275 35.6259 33.9153 35.5544C32.4052 35.4336 30.9049 35.2541 29.4158 35.0167C28.8573 34.9284 28.2927 34.839 27.7269 34.7743C26.6692 34.6534 25.6275 34.4118 24.6238 34.054C24.114 33.8595 23.6295 33.6042 23.1809 33.2934C23.0139 33.1883 22.879 33.0391 22.7911 32.8623C22.5679 32.4224 22.3176 31.9968 22.0574 31.577C21.6029 30.8432 21.1362 30.115 20.6649 29.3903C20.5175 29.1669 20.3645 28.9537 20.2996 28.6722C20.2628 28.508 20.0305 28.3986 19.9411 28.2345C19.6899 27.7743 19.3392 27.3957 19.0176 26.9903C18.7485 26.6554 18.4033 26.4185 18.0516 26.1907C17.7914 26.0232 17.5602 26.1594 17.5479 26.4788C17.5378 26.7503 17.5769 27.026 17.5479 27.2953C17.5147 27.5419 17.5671 27.7927 17.6964 28.0055C18.047 28.5895 18.1598 29.2473 18.275 29.904C18.2804 30.0399 18.2681 30.1757 18.2381 30.3083C17.8706 30.3675 17.6339 30.1375 17.3513 30.066C16.2636 29.7879 15.2686 29.2742 14.3059 28.7259C13.4627 28.25 12.5961 27.8403 11.716 27.4505C11.5295 27.369 11.3107 27.2774 11.0907 27.4359C11.1778 27.6861 11.3509 27.8123 11.5229 27.9531C12.0198 28.3595 12.5727 28.6968 13.0137 29.1736C13.2511 29.4251 13.5373 29.6253 13.8547 29.7622C14.2322 29.9331 14.5706 30.1944 14.9123 30.4322C15.0396 30.5216 15.1021 30.6668 14.8966 30.8254C14.489 30.6512 14.0512 30.5015 13.6503 30.2492C13.1925 29.9621 12.748 29.6427 12.1884 29.5534C11.9937 29.511 11.8094 29.4298 11.6468 29.3144C10.9064 28.8352 10.0241 28.7158 9.2402 28.3473C9.08155 28.2725 8.90514 28.2701 8.75881 28.5025C8.88727 28.7292 9.05516 28.9311 9.25462 29.0988C9.97282 29.7053 10.6975 30.305 11.4178 30.9092C11.5887 31.0521 11.7529 31.2085 11.9204 31.3558C12.1873 31.5792 12.4509 31.8026 12.7312 32.0014C13.5342 32.5778 14.3806 33.0911 15.263 33.5369C15.328 33.5731 15.3883 33.6169 15.4427 33.6676C15.579 33.7793 15.6416 34.0127 15.5444 34.0439C15.4317 34.0707 15.3143 34.0707 15.2015 34.0439C15.1049 34.0199 15.0119 33.9823 14.9257 33.9322C13.9753 33.451 13.0272 32.9585 12.0756 32.4894C11.2549 32.0862 10.4217 31.7076 9.58969 31.3257C9.51264 31.29 9.40428 31.3213 9.24575 31.3213ZM6.98317 22.6706C7.36039 22.8785 7.76227 23.0382 8.17918 23.1463C8.68325 23.2558 9.18954 23.35 9.69804 23.4289C10.2843 23.5205 10.8796 23.6768 11.4626 23.6445C12.0456 23.6121 12.586 23.7282 13.1378 23.8511C13.355 23.9028 13.575 23.9422 13.7967 23.9695C14.8989 24.0935 16.0012 24.2151 17.1045 24.3268C17.5457 24.3715 17.998 24.3458 18.4313 24.4262C19.0242 24.5379 19.6162 24.4553 20.2069 24.4888C20.5755 24.51 20.9519 24.433 21.3148 24.4787C21.6978 24.5268 22.0441 24.3893 22.4114 24.367C23.4434 24.309 24.4731 24.2174 25.5043 24.137C26.6384 24.0487 27.7713 23.9225 28.9066 23.8823C29.3726 23.8525 29.8374 23.7935 30.2959 23.7059C30.5141 23.6713 30.7299 23.6154 30.9481 23.602C31.8615 23.545 32.7738 23.4904 33.6872 23.4547C34.0792 23.439 34.4688 23.343 34.867 23.4736C34.9853 23.4971 35.1086 23.4898 35.2232 23.4524C35.3909 23.4132 35.5499 23.3251 35.7188 23.3072C36.2587 23.2514 36.7999 23.2256 37.3398 23.1732C37.6838 23.1397 38.0277 23.0302 38.3679 23.0448C38.7119 23.0638 39.057 23.0492 39.3973 23.0013C39.9076 22.923 40.4303 22.923 40.9407 22.8426C41.7395 22.7153 42.558 22.7901 43.347 22.559C43.9054 22.3959 44.486 22.2842 45.1024 22.1391C45.1197 21.4422 45.1419 20.7575 45.1554 20.073C45.169 19.4773 45.1789 18.8818 45.185 18.2861C45.1838 18.2098 45.1702 18.1344 45.1431 18.0628C45.1197 18.0215 45.0913 17.9838 45.0568 17.9511C45.0087 17.9444 44.9607 17.9444 44.9126 17.9511C43.9227 18.2471 43.1843 17.8941 42.6147 17.0789C42.526 16.9516 42.5038 16.7304 42.2646 16.7606C41.9749 17.2789 41.9552 17.2855 42.1056 17.7166C42.3361 18.3722 42.3041 19.0265 42.1599 19.6854C42.1118 19.9088 42.0206 20.1255 41.7826 20.2037C41.3808 20.3343 40.9616 20.465 40.5474 20.2942C40.1579 20.1382 39.7844 19.9453 39.4318 19.7178C39.0238 19.4498 38.813 19.03 38.6786 18.5598C38.5713 18.1806 38.4284 17.8123 38.2521 17.4597C38.2213 17.4047 38.1769 17.3586 38.1226 17.3258C38.0696 17.2929 38.008 17.2747 37.9451 17.2725C37.8822 17.2704 37.8194 17.2845 37.7627 17.3136C37.7072 17.3427 37.6603 17.3857 37.6258 17.4385C37.4878 17.6712 37.3805 17.9204 37.3053 18.18C37.1722 18.6033 37.0662 19.0355 36.8282 19.4185C36.4091 20.0887 36.4054 20.0942 35.6399 19.9904C35.4673 19.9669 35.2923 19.9569 35.1246 19.9178C34.9804 19.8977 34.8435 19.8433 34.7252 19.7591C34.2913 19.3649 33.7723 19.0567 33.4518 18.5397C33.4222 18.5043 33.3852 18.4766 33.3433 18.4587C33.3014 18.4409 33.2558 18.4333 33.2101 18.4369C33.1633 18.4479 33.1202 18.4701 33.0844 18.5014C33.0487 18.5327 33.0203 18.5723 33.003 18.6168C32.9587 18.9764 32.8083 19.3426 33.0302 19.6978C33.3186 20.1624 33.2853 20.6381 33.0696 21.1184C32.9932 21.3271 32.902 21.5303 32.7972 21.727C32.4853 22.2329 32.1857 22.7622 31.509 22.8638C31.4153 22.8954 31.3265 22.9392 31.2452 22.9945C30.6793 23.2637 30.1406 23.1386 29.6179 22.8649C29.5514 22.8323 29.4959 22.7811 29.4577 22.7175C29.2148 22.2608 28.9362 21.8241 28.8204 21.3048C28.6835 20.695 28.612 20.0876 28.7501 19.4677C28.8043 19.1985 28.7821 18.9194 28.6848 18.6625C28.5282 18.2091 27.7516 18.0003 27.4557 18.3733C27.0095 18.9316 26.4153 19.347 25.9813 19.9368C25.4463 20.6615 24.195 20.799 23.4524 20.1657C23.1642 19.9211 22.8493 19.7357 22.4551 19.767C22.3507 19.8764 22.2704 20.0066 22.2195 20.1488C22.1685 20.2912 22.148 20.4426 22.1591 20.5935C22.168 21.2199 22.0262 21.8274 21.8721 22.4205C21.7179 23.0135 21.4711 23.5664 20.7609 23.7527C20.4672 23.8299 20.1969 23.9136 19.8965 23.8477C19.7055 23.7967 19.5104 23.762 19.3136 23.7439C19.1402 23.7462 18.969 23.7059 18.8149 23.6264C18.6608 23.547 18.5287 23.4309 18.4302 23.2882C18.3185 23.1296 18.132 23.0247 18.0125 22.8706C17.8629 22.6773 17.683 22.4729 17.6272 22.2462C17.4943 21.6957 17.3245 21.1239 17.3558 20.571C17.3982 19.815 17.195 19.098 17.1771 18.3576C17.1545 18.2108 17.0976 18.0715 17.0107 17.9511C16.8645 17.701 16.6868 17.6708 16.4601 17.8394C15.9553 18.2214 15.6103 18.7329 15.3189 19.2801C15.1457 19.6073 15.0329 19.9759 14.8129 20.264C14.5315 20.6348 14.1708 20.9452 13.8413 21.278C13.8017 21.308 13.756 21.3287 13.7073 21.3383C13.2449 21.4745 12.7859 21.536 12.3359 21.2914C11.8367 21.0189 11.3743 20.7275 11.0494 20.2193C10.6662 19.6207 10.1861 19.0824 10.0096 18.3676C10.0007 18.3331 9.9404 18.3107 9.898 18.2839C9.84967 18.2897 9.80307 18.3049 9.76054 18.3285C9.41993 18.61 9.26029 18.9886 9.18091 19.4119C9.08044 19.9434 9.03359 20.4884 8.75327 20.9754C8.33931 21.6995 7.72454 22.2884 6.98317 22.6706ZM34.4565 7.27023C34.5341 7.16742 34.6192 7.1027 34.6364 7.02343C34.6919 6.78231 34.7313 6.53798 34.756 6.29192C34.7905 6.09838 34.7905 5.90028 34.756 5.70674C34.5933 5.11157 34.5316 4.49298 34.576 3.87747C34.5884 3.75358 34.576 3.62846 34.5415 3.50889C34.4244 3.20674 34.4207 2.8718 34.5329 2.56744C34.5403 2.52022 34.5366 2.47202 34.523 2.42616C34.5095 2.38043 34.4873 2.3379 34.4565 2.30166C34.364 2.18997 34.2259 2.22017 34.1211 2.28267C33.7143 2.51603 33.3322 2.79858 32.9081 2.99187C31.9614 3.42395 31.0898 4.00494 30.3268 4.71278C30.1653 4.86355 29.973 4.983 29.7992 5.12045C29.6253 5.25777 29.4478 5.39288 29.2851 5.54476C28.9966 5.81276 28.7205 6.09308 28.4185 6.38795C28.5307 6.71179 28.6071 7.0725 28.9091 7.3294C28.9942 7.41939 29.0632 7.5238 29.1125 7.63759C29.3356 8.04969 29.5119 8.49311 29.7819 8.8739C30.2294 9.50938 30.3711 10.2275 30.4451 10.9689C30.4525 11.2457 30.4402 11.5226 30.4094 11.7976C30.688 11.8949 30.9579 11.9518 31.1909 12.079C31.4781 12.2281 31.811 12.2678 32.1253 12.1907C32.7812 12.0657 33.4333 11.9272 34.0854 11.7898C34.2074 11.7691 34.327 11.7339 34.4404 11.6848C34.8287 11.5028 35.0876 11.2192 35.0482 10.759C35.0173 10.4162 34.9557 10.0767 34.9064 9.73497C34.8805 9.56523 34.8041 9.39215 34.8238 9.22906C34.878 8.75112 34.6574 8.37921 34.4355 7.96599C34.3443 8.02738 34.2691 8.05191 34.237 8.10332C34.1692 8.215 34.1051 8.31436 33.9572 8.30549C33.7637 8.30623 33.5701 8.29156 33.3778 8.26197C33.3334 8.242 33.2952 8.21094 33.2668 8.17186C33.2385 8.13266 33.22 8.0868 33.2138 8.0386C33.2533 7.62427 33.2225 7.19651 33.4049 6.80339C33.4185 6.7616 33.4419 6.72387 33.474 6.69404C33.506 6.66408 33.5442 6.64313 33.5874 6.63327C33.6305 6.62329 33.6749 6.62464 33.7168 6.63734C33.7587 6.64991 33.7957 6.67333 33.8265 6.70514C34.0336 6.87932 34.2259 7.06583 34.4577 7.27466L34.4565 7.27023ZM4.93275 15.8247C4.62284 16.0544 4.36051 16.3419 4.15995 16.6713C4.00117 16.9195 3.81379 17.1482 3.60151 17.3525C3.31662 17.6647 2.95913 17.9018 2.56071 18.0427C2.36975 18.1075 2.20666 18.2404 2.20333 18.4715C2.18225 18.8904 2.1841 19.3103 2.20888 19.7291C2.23563 20.0216 2.31391 20.3008 2.25696 20.6046C2.2111 20.848 2.36864 21.0301 2.59189 21.1317C3.19569 21.4087 3.80294 21.6807 4.41339 21.9481C4.56354 21.9964 4.7169 22.0337 4.87247 22.0598C4.43128 21.5416 4.27385 21.048 4.28495 20.4962C4.27915 20.3976 4.26226 20.2998 4.23477 20.2048C4.15551 19.7906 4.18953 19.3628 4.33302 18.9662C4.58647 18.1912 4.81206 17.4083 5.04333 16.6211C5.1147 16.3977 5.17277 16.1553 4.93497 15.8293L4.93275 15.8247ZM14.3393 27.3679C14.7247 27.8447 15.0251 28.0826 15.4339 28.1372C15.821 28.1725 16.2104 28.1725 16.5975 28.1372C16.6601 28.1372 16.7427 28.0077 16.7684 27.924C16.7848 27.8712 16.7889 27.8154 16.7805 27.7608C16.772 27.7063 16.7513 27.6542 16.7197 27.6089C16.6882 27.5635 16.6466 27.526 16.5983 27.4992C16.5501 27.4723 16.4964 27.4568 16.4411 27.4538C15.7822 27.4169 15.1211 27.4002 14.3393 27.3679ZM24.5769 3.85615L24.4652 3.79808C24.4473 3.84061 24.4094 3.88857 24.4184 3.92432C24.4272 3.96007 24.491 3.96783 24.53 3.98792C24.5435 3.94441 24.5601 3.9009 24.5769 3.85615Z" fill="#BA0017"/>
<path d="M15.1523 1.46105L15.1793 1.34863C15.1726 1.38907 15.1647 1.42839 15.1568 1.47005L15.1523 1.46105Z" fill="#BA0017"/>
<path d="M13.4882 3.53381C13.4815 3.57203 13.4736 3.60914 13.4668 3.64624C13.4747 3.60581 13.4826 3.56537 13.4927 3.52148L13.4882 3.53381Z" fill="#BA0017"/>
<path d="M20.107 7.89258C20.1438 8.22764 20.1761 8.53817 20.213 8.8731L19.668 9.49971C19.3241 9.49971 19.1331 9.34783 19.0806 9.08871C19.0536 8.94411 19.0653 8.79508 19.1143 8.65652C19.1633 8.51783 19.248 8.39456 19.3598 8.29914C19.5707 8.10301 19.8276 7.96321 20.107 7.89258Z" fill="#BA0017"/>
<path d="M24.5249 6.0957C25.2225 6.27001 25.3063 6.83177 25.4838 7.33991C25.3864 7.47046 25.3088 7.59558 25.2114 7.70393C24.9833 7.96195 24.612 7.91609 24.5114 7.59225C24.3686 7.12097 24.2412 6.63515 24.5249 6.0957ZM24.9846 7.35322C25.0561 7.24942 25.1226 7.1958 25.1165 7.14884C25.1103 7.11765 25.098 7.08831 25.0783 7.06303C25.0585 7.03789 25.0339 7.01754 25.0055 7.00374C24.9698 6.99141 24.8588 7.06846 24.8638 7.08855C24.8934 7.18125 24.934 7.27013 24.9846 7.35322Z" fill="#BA0017"/>
<path d="M22.4514 9.74414C23.1863 9.89712 23.2444 9.99316 23.1774 10.9123C22.9149 11.2127 22.619 11.1355 22.2839 10.9613C22.2114 10.547 22.0807 10.1159 22.4514 9.74414Z" fill="#BA0017"/>
<path d="M21.8301 5.31738C22.3548 5.48602 22.5749 5.77978 22.5749 6.26671C22.5749 6.43313 22.6329 6.60178 22.4855 6.75143C22.3216 6.90269 22.1043 6.98294 21.8813 6.9748C21.7949 6.97135 21.7128 6.93597 21.6509 6.87557C21.5891 6.81504 21.5518 6.7338 21.5463 6.64751C21.5378 6.54975 21.5457 6.45126 21.5698 6.35609C21.629 6.1729 21.7261 6.00094 21.7753 5.81553C21.8065 5.65121 21.8248 5.48467 21.8301 5.31738ZM22.0042 6.02546C21.725 6.53249 21.725 6.5325 22.174 6.62742C22.2041 6.39961 22.3214 6.16957 22.0042 6.03101V6.02546Z" fill="#BA0017"/>
<path d="M26.5881 9.94685C27.1243 9.90667 27.239 10.3567 27.4818 10.6437C27.5238 10.694 27.4818 10.8381 27.4449 10.9207C27.3968 11.0048 27.3302 11.0764 27.2501 11.1296C27.0948 11.2412 26.9481 11.4054 26.7225 11.2926C26.5684 11.2156 26.5499 11.0558 26.6953 10.713C26.7225 10.6602 26.7348 10.6003 26.7299 10.5408C26.7237 10.4814 26.7015 10.4248 26.6633 10.3779C26.6103 10.2745 26.5696 10.1646 26.5437 10.0508C26.5326 10.0362 26.5573 10.0106 26.5881 9.94685Z" fill="#BA0017"/>
<path d="M13.6328 9.87031C13.529 9.38005 13.8294 8.97682 13.9511 8.5302C13.9735 8.44859 14.1365 8.40729 14.2861 8.31348C14.4626 8.77921 14.7797 9.12648 14.8055 9.61119C14.8211 9.73237 14.7904 9.85514 14.7193 9.9545C14.6483 10.054 14.5422 10.1229 14.4223 10.1473C14.1543 10.2109 14.0159 10.1628 13.6328 9.87031Z" fill="#BA0017"/>
<path d="M14.7176 5.69548C14.7053 6.15455 14.3826 6.47728 13.9828 6.408C13.8862 6.39283 13.7948 6.35376 13.7173 6.29421C13.6396 6.23455 13.5782 6.15652 13.5385 6.06715C13.4988 5.97765 13.4823 5.87977 13.4902 5.78226C13.4982 5.68475 13.5305 5.59082 13.5841 5.50896C13.6341 5.42637 13.6953 5.35129 13.7661 5.28571C13.9437 5.13038 14.0956 4.88137 14.3837 5.00317C14.5746 5.07565 14.7243 5.43981 14.7176 5.69548Z" fill="#BA0017"/>
<path d="M15.6378 4.16707C15.6769 3.9538 15.7495 3.77062 15.7104 3.73819C15.41 3.50595 15.5698 3.31943 15.755 3.10505C15.8453 3.10111 15.9353 3.118 16.018 3.15424C16.1007 3.19048 16.1739 3.24522 16.2321 3.31425C16.2904 3.38328 16.3321 3.46477 16.3539 3.55242C16.3757 3.64006 16.3772 3.73154 16.3581 3.8198C16.3203 3.96033 16.2288 4.08065 16.1035 4.15486C15.993 4.21181 15.8288 4.16707 15.6378 4.16707Z" fill="#BA0017"/>
<path d="M16.2642 7.31897L15.9492 7.08783L16.2161 6.61323C16.5858 6.52497 16.5053 6.86003 16.7019 6.99736L16.2429 7.29999L16.2642 7.31897Z" fill="#BA0017"/>
<path d="M16.2438 7.30078L16.3499 7.78883C16.2169 7.93627 16.0997 7.93072 16.0316 7.73631C15.95 7.51306 15.9802 7.46499 16.265 7.32088L16.2438 7.30078Z" fill="#BA0017"/>
<path d="M33.1247 5.44088C32.9497 5.42572 32.7796 5.37012 32.6292 5.27853C32.4775 5.18681 32.3506 5.06169 32.2556 4.91265C32.2421 4.49266 32.2988 4.13084 32.7648 3.9622C32.8893 3.91758 32.9706 3.76459 33.0853 3.67522C33.2221 3.56353 33.4798 3.65845 33.4896 3.82931C33.5204 4.09521 33.513 4.3642 33.4662 4.62776C33.4021 4.90587 33.2468 5.16277 33.1247 5.44088Z" fill="#BA0017"/>
<path d="M32.0332 7.29688C32.3253 7.57498 32.6015 7.80957 32.4338 8.25854C32.3981 8.35457 32.4967 8.49411 32.4955 8.61246C32.4955 8.94752 32.2551 9.12059 31.9444 9.02234C31.8039 8.97599 31.6708 8.91102 31.5475 8.82917C31.4587 8.78023 31.3897 8.70158 31.3539 8.60715C31.3182 8.51273 31.317 8.40856 31.3502 8.31314C31.4784 7.94689 31.5697 7.54601 32.0332 7.29688Z" fill="#BA0017"/>
<path d="M30.7251 4.87695C30.8952 5.0679 31.0469 5.16172 31.074 5.28241C31.1529 5.64644 31.1591 6.01724 30.963 6.34996C30.8324 6.42688 30.6869 6.47459 30.5378 6.48976C30.3874 6.50504 30.2357 6.48741 30.0927 6.43822C30.0077 6.41493 29.9337 6.36488 29.8807 6.2956C29.8265 6.22632 29.7981 6.1415 29.7969 6.0541C29.7969 5.9312 29.9078 5.80953 29.983 5.66542C30.2912 6.12437 30.2912 6.12437 30.6943 6.02057L30.4367 5.39175C30.5094 5.26675 30.5895 5.12153 30.7251 4.87695Z" fill="#BA0017"/>
<path d="M33.2124 11.3532C33.1582 11.0121 33.1927 10.6626 33.3135 10.3391C33.3283 10.3121 33.3493 10.2883 33.3727 10.2691C33.3973 10.25 33.4245 10.236 33.454 10.2278C33.4849 10.2197 33.5157 10.2177 33.5465 10.2218C33.5761 10.226 33.6057 10.2362 33.6328 10.252C33.7881 10.3637 33.9299 10.4977 34.0791 10.6261L33.883 11.3532H33.2124Z" fill="#BA0017"/>
</svg>
