<svg width="136" height="29" viewBox="0 0 136 29" fill="none" xmlns="http://www.w3.org/2000/svg">
<path d="M0 2.03896C0.455473 0.991698 0.92424 0.709104 2.08453 0.749C2.30728 0.749 2.53003 0.749 2.74945 0.749C2.94028 0.738698 3.13121 0.767007 3.31081 0.832254C3.49041 0.8975 3.655 0.998343 3.7947 1.12872C3.93441 1.2591 4.04633 1.41637 4.12381 1.59106C4.20128 1.76575 4.24269 1.95425 4.24553 2.14533C4.49507 4.97484 5.77099 7.61537 7.83279 9.56921C9.90403 11.5374 12.6236 12.0494 15.0805 10.899C16.776 10.1078 17.9995 8.7879 18.937 7.18213C19.7849 5.70394 20.3486 4.08021 20.5993 2.39467C20.7689 1.3308 21.4138 0.752322 22.491 0.732388C22.8356 0.70902 23.1816 0.715693 23.525 0.752322C23.8156 0.803106 24.0874 0.930333 24.3126 1.12091C24.5378 1.31148 24.7082 1.55856 24.8063 1.83674C24.9045 2.11495 24.9268 2.41424 24.8711 2.70393C24.8153 2.99361 24.6835 3.26325 24.4891 3.48515C24.3472 3.65895 24.2634 3.87292 24.2497 4.09688C24.2187 8.5829 24.1976 13.0689 24.1866 17.5548C24.1866 20.1459 24.1866 22.7357 24.1866 25.3246C24.191 25.5077 24.2606 25.6833 24.3827 25.8199C24.918 26.395 24.8315 27.0201 24.5922 27.6818C24.5151 27.9509 24.3582 28.1905 24.1421 28.3686C23.926 28.5467 23.661 28.6547 23.382 28.679C22.692 28.7379 21.9987 28.7466 21.3075 28.7056C21.0115 28.7044 20.7241 28.6062 20.4894 28.4261C20.2546 28.246 20.0853 27.9939 20.0075 27.7083C19.8908 27.4093 19.8633 27.0826 19.9282 26.7683C19.9931 26.4536 20.1477 26.1647 20.3732 25.9363C20.5004 25.8056 20.5789 25.6356 20.596 25.4541C20.5782 20.5957 20.5528 15.7364 20.5195 10.8758C20.5142 10.81 20.5053 10.7445 20.4929 10.6796C18.2588 13.1964 15.6855 15.0016 12.1814 14.9483C8.67725 14.8953 6.15387 13.1265 3.97623 10.4535C3.94633 11.4509 3.87983 12.3187 3.89644 13.1964C3.96959 17.2656 4.05825 21.3361 4.16242 25.4078C4.17794 25.6013 4.26019 25.7833 4.39515 25.9229C4.60937 26.1613 4.75374 26.4539 4.8124 26.7688C4.87105 27.0838 4.84171 27.409 4.72761 27.7083C4.65848 27.9897 4.49795 28.2404 4.27114 28.4208C4.04432 28.6014 3.76405 28.7016 3.47422 28.7056C2.7841 28.7483 2.09178 28.7393 1.40299 28.679C1.11512 28.6614 0.84076 28.5509 0.62128 28.3638C0.401799 28.1768 0.249092 27.9233 0.186178 27.6418C0.0809921 27.3467 0.0646133 27.0274 0.139065 26.723C0.213517 26.4187 0.375533 26.1429 0.605078 25.9296C0.739781 25.7894 0.818948 25.6052 0.827828 25.4109C0.807881 23.7653 0.748037 22.1195 0.731414 20.474C0.711466 18.6621 0.731414 16.8468 0.731414 15.0348C0.707032 11.3512 0.676003 7.66753 0.638324 3.98384C0.631099 3.87981 0.597954 3.77922 0.541912 3.69128C0.372356 3.41201 0.189503 3.14273 0.00997342 2.86678L0 2.03896Z" fill="#F3E6B1"/>
<path d="M135.894 27.1389C135.625 28.1365 134.924 28.5022 133.943 28.469C133.152 28.4522 132.364 28.4989 131.576 28.469C131.253 28.4623 130.943 28.345 130.696 28.137C130.45 27.9287 130.283 27.642 130.222 27.3251C130.125 26.9968 130.141 26.6456 130.266 26.327C130.391 26.0082 130.619 25.7408 130.914 25.5665C131.127 25.4401 131.137 25.3139 131.12 25.1011C130.962 23.7136 130.88 22.3185 130.874 20.922C130.917 19.755 130.914 18.5947 130.848 17.4444C130.794 16.5102 130.828 15.5694 130.818 14.6352C130.818 14.4688 130.798 14.3027 130.784 14.1366L121.519 13.8041C121.495 14.0601 121.449 14.3292 121.449 14.5986C121.449 16.9525 121.429 19.3063 121.469 21.6601C121.489 22.7937 121.608 23.9207 121.712 25.0512C121.726 25.1383 121.757 25.2215 121.804 25.2963C121.851 25.3711 121.912 25.4359 121.984 25.4867C122.267 25.6481 122.489 25.8988 122.613 26.2C122.738 26.501 122.759 26.8349 122.672 27.149C122.626 27.4748 122.468 27.7744 122.226 27.9969C121.983 28.2194 121.671 28.3509 121.343 28.369C120.405 28.4291 119.465 28.4522 118.523 28.4388C118.187 28.4441 117.859 28.3352 117.593 28.13C117.326 27.9246 117.137 27.635 117.057 27.3087C116.96 26.9583 116.983 26.5859 117.122 26.25C117.26 25.9141 117.506 25.6338 117.822 25.4535C117.88 25.4077 117.929 25.3499 117.963 25.284C117.998 25.2181 118.017 25.1455 118.021 25.0713C117.985 24.2831 117.902 23.4986 117.872 22.7107C117.832 21.6303 117.799 20.5495 117.812 19.4724C117.852 16.2344 117.935 12.9961 117.955 9.75795C117.955 8.85034 117.789 7.94605 117.725 7.03841C117.669 6.2272 117.646 5.4127 117.609 4.60149C117.609 4.46184 117.609 4.32222 117.589 4.18589C117.587 4.01779 117.543 3.85282 117.46 3.70636C117.378 3.55987 117.26 3.43664 117.117 3.34811C116.555 2.99236 116.452 2.38728 116.572 1.76559C116.616 1.4654 116.761 1.18929 116.984 0.983078C117.206 0.77687 117.493 0.652966 117.795 0.631887C118.858 0.565413 119.924 0.565413 120.987 0.631887C121.675 0.678428 122.084 1.21701 122.223 2.00164C122.284 2.29599 122.246 2.60212 122.115 2.87256C121.984 3.14301 121.767 3.36273 121.499 3.49769C121.412 3.53541 121.34 3.60183 121.296 3.68592C121.252 3.76999 121.238 3.86667 121.256 3.95983C121.358 5.60218 121.458 7.24565 121.555 8.89023C121.582 9.35899 121.628 9.8311 121.615 10.2999C121.615 10.7021 121.761 10.8152 122.144 10.8251C124.594 10.9016 127.041 11.0014 129.491 11.0845C130 11.1011 130.509 11.0845 131.04 11.0845C131.053 11.0444 131.061 11.0032 131.064 10.9615C130.99 8.61096 130.921 6.26045 130.834 3.90994C130.823 3.84316 130.798 3.77934 130.762 3.72225C130.725 3.66515 130.677 3.61593 130.621 3.57749C130.325 3.40623 130.09 3.1443 129.954 2.83013C129.816 2.51599 129.784 2.16616 129.86 1.83206C129.924 1.50122 130.099 1.2021 130.356 0.983943C130.613 0.765786 130.936 0.641603 131.273 0.631887C132.213 0.582024 133.156 0.582024 134.096 0.631887C134.441 0.638783 134.772 0.769556 135.028 1.0003C135.284 1.23105 135.449 1.54637 135.492 1.8886C135.658 2.66323 135.435 3.13534 134.734 3.60077C134.677 3.65692 134.632 3.72431 134.602 3.79871C134.572 3.87312 134.558 3.95288 134.561 4.03298C134.588 6.36021 134.661 8.70404 134.651 11.0413C134.651 12.1317 134.415 13.2189 134.408 14.3061C134.408 15.5496 134.555 16.7928 134.591 18.0363C134.631 19.4194 134.591 20.8022 134.641 22.1853C134.671 23.206 134.774 24.2234 134.854 25.2441C134.857 25.2834 134.868 25.322 134.887 25.3569C134.906 25.3918 134.932 25.4225 134.963 25.4468C135.217 25.5746 135.435 25.7628 135.598 25.9948C135.762 26.2265 135.866 26.4951 135.901 26.7765L135.894 27.1389Z" fill="#F3E6B1"/>
<path d="M56.4361 14.6592C56.4361 17.2023 56.416 19.7323 56.4361 22.2623C56.4361 23.2398 56.5556 24.2206 56.6488 25.198C56.6821 25.3633 56.779 25.509 56.918 25.6036C57.1835 25.7728 57.3884 26.0213 57.5037 26.3139C57.6187 26.6068 57.6386 26.9284 57.5598 27.2327C57.4001 27.9343 56.9515 28.4195 56.2798 28.4628C55.3023 28.5293 54.3182 28.5527 53.3341 28.5326C53.0188 28.5298 52.7131 28.4243 52.4633 28.2325C52.2131 28.0407 52.0322 27.7727 51.9479 27.4689C51.8401 27.1436 51.8401 26.7922 51.9479 26.4669C52.0557 26.1419 52.2656 25.8599 52.5462 25.6637C52.6324 25.6134 52.7011 25.5383 52.7436 25.4479C52.7857 25.3574 52.7991 25.2563 52.7824 25.1581C52.7159 23.2763 52.6492 21.3946 52.616 19.5065C52.5861 17.8442 52.616 16.1816 52.616 14.5193C52.5861 12.5579 52.513 10.5964 52.4864 8.63487C52.4864 8.15282 52.5828 7.67407 52.6029 7.192C52.6604 6.0306 52.7014 4.87253 52.7257 3.71778C52.7257 3.61471 52.6029 3.48505 52.5029 3.4119C52.2424 3.23629 52.0414 2.98522 51.9275 2.6923C51.8133 2.39935 51.7915 2.07856 51.8647 1.77288C51.9099 1.45982 52.0556 1.16997 52.2798 0.946927C52.5043 0.723856 52.7949 0.579684 53.1082 0.536103C53.9438 0.417559 54.7875 0.362001 55.6315 0.369874C57.9588 0.369874 60.2858 0.369874 62.6131 0.456338C64.3218 0.517201 65.9907 0.986907 67.4805 1.82606C69.7911 3.10938 71.0044 6.5304 69.4985 9.25659C68.664 10.766 67.3906 11.7334 65.9112 12.4682C64.9337 12.9536 63.9164 13.3192 62.8923 13.7348C62.7695 13.7881 62.6397 13.8278 62.4537 13.8945C62.729 14.3532 63.0381 14.791 63.3778 15.2042C64.7283 16.6509 65.8746 18.275 66.7856 20.0316C67.4238 21.2184 68.2583 22.3023 68.9898 23.4427C69.3555 24.0112 69.688 24.603 70.0538 25.1715C70.1465 25.3287 70.2858 25.4529 70.4527 25.5272C71.2205 25.8164 71.5862 26.4314 71.4966 27.3424C71.4704 27.6783 71.3232 27.9932 71.0823 28.2289C70.8414 28.4642 70.5231 28.6041 70.1867 28.6225C69.1916 28.7065 68.1921 28.7253 67.1946 28.6789C66.0474 28.6091 65.4491 27.3491 66.0343 26.3086C66.0996 26.2232 66.1351 26.1185 66.1351 26.011C66.1351 25.9035 66.0996 25.7988 66.0343 25.7134C65.3062 24.6064 64.5613 23.5025 63.8667 22.3888C63.4775 21.757 63.1651 21.059 62.8259 20.394C62.0548 18.8881 60.8777 17.6778 59.8536 16.3581C59.4748 15.8659 59.1023 15.3605 58.7168 14.8753C58.6403 14.7787 58.5138 14.6592 58.4075 14.6559C57.7427 14.6492 57.0944 14.6592 56.4361 14.6592ZM56.4361 3.53159V4.09346C56.4361 5.24377 56.5358 6.40407 56.3861 7.53445C56.2412 8.61638 56.179 9.70778 56.1999 10.7992C56.1999 10.9987 56.22 11.2015 56.2331 11.4641C57.387 11.4076 58.504 11.4375 59.5946 11.2846C61.3632 11.0319 62.9722 10.2573 64.5613 9.48597C65.0021 9.24922 65.3768 8.90646 65.6518 8.4886C66.0642 7.88352 66.5262 7.26846 66.4366 6.44729C66.2903 5.07089 65.4823 4.17989 64.0295 3.78758C61.5293 3.09274 58.9993 3.5183 56.4361 3.53159Z" fill="#F3E6B1"/>
<path d="M33.8072 18.8711C33.6209 19.8684 33.4747 20.8656 33.2485 21.8333C32.9492 23.0534 32.5835 24.2536 32.2147 25.4605C32.1736 25.5515 32.1616 25.6529 32.1801 25.7509C32.1985 25.8489 32.2465 25.9391 32.3177 26.0089C32.5095 26.2118 32.6416 26.4639 32.6991 26.7372C32.7566 27.0106 32.737 27.2945 32.6432 27.5575C32.5491 27.8205 32.3841 28.0522 32.1667 28.2273C31.9489 28.4023 31.687 28.5137 31.4101 28.5489C30.3639 28.6469 29.3111 28.6469 28.265 28.5489C27.4936 28.4925 27.0448 27.8674 26.9916 27.043C26.9484 26.3182 27.3241 25.8129 28.0422 25.5367C28.1919 25.4734 28.3111 25.3542 28.3747 25.2045C28.7072 24.1637 29.0395 23.1265 29.3254 22.0726C29.7643 20.4469 30.1599 18.8078 30.5856 17.1787C30.7252 16.6435 30.9181 16.1183 31.0708 15.5929C31.6728 13.7112 32.2446 11.8195 32.8828 9.94109C33.5944 7.8632 34.3689 5.80525 35.1235 3.74401C35.1704 3.6483 35.1922 3.54232 35.1869 3.43595C35.1816 3.32958 35.1495 3.22628 35.0937 3.1356C34.977 2.91694 34.9125 2.67433 34.9052 2.42663C34.8977 2.17894 34.9477 1.93289 35.051 1.70764C35.1542 1.48239 35.3081 1.28406 35.5007 1.12808C35.6931 0.972066 35.9192 0.86268 36.161 0.808378C36.4181 0.757008 36.6797 0.730289 36.9422 0.728586C37.8998 0.728586 38.8538 0.708652 39.8114 0.728586C40.0878 0.714292 40.3631 0.77415 40.6085 0.901962C40.8539 1.02977 41.0607 1.22091 41.2076 1.45556C41.3545 1.69019 41.436 1.9598 41.4435 2.23651C41.4511 2.51318 41.3846 2.78687 41.2509 3.02921C41.2054 3.11514 41.1869 3.21274 41.1976 3.30937C41.2082 3.40597 41.2475 3.49718 41.3106 3.57114C41.7696 4.38567 42.2051 5.21681 42.6407 6.04798C42.8434 6.44027 43.0195 6.84587 43.1957 7.25148C43.4352 7.79006 43.6913 8.32532 43.8906 8.88054C44.3761 10.2303 44.858 11.5801 45.2871 12.9465C45.5032 13.6414 45.5696 14.3796 45.7525 15.0876C46.085 16.3841 46.4904 17.6642 46.8064 18.9675C47.1688 20.4569 47.4712 21.9595 47.7872 23.4624C47.9034 23.9875 48.0298 24.5096 48.1594 25.0348C48.1851 25.1872 48.2476 25.331 48.3414 25.4538C48.4355 25.5767 48.5578 25.6747 48.6979 25.7397C48.9433 25.862 49.1413 26.0622 49.2616 26.3084C49.3817 26.5549 49.4174 26.8341 49.363 27.1027C49.2831 27.7677 48.9872 28.2764 48.3224 28.4657C47.9572 28.5509 47.5834 28.5922 47.2085 28.5888C46.6001 28.612 45.9918 28.612 45.3801 28.6089C44.6653 28.6089 44.0503 28.3928 43.7742 27.6711C43.6346 27.3579 43.5997 27.0081 43.6745 26.6733C43.7493 26.3386 43.93 26.0368 44.1899 25.8129C44.2312 25.7629 44.2619 25.7048 44.2798 25.6426C44.2974 25.58 44.3018 25.5147 44.2929 25.4505C43.8872 23.4314 43.4707 21.4143 43.043 19.3996C43.0145 19.3293 42.9696 19.2673 42.9115 19.2184C42.8534 19.1699 42.7845 19.1361 42.7105 19.1204C39.7782 19.0238 36.8425 18.9443 33.9102 18.8644C33.8756 18.8625 33.8409 18.8647 33.8072 18.8711ZM42.4511 15.9553C41.4536 12.2982 40.26 8.80074 38.3884 5.4994C37.1814 8.91046 35.4893 12.1486 35.1537 15.8224L42.4511 15.9553Z" fill="#F3E6B1"/>
<path d="M88.1586 11.1353C88.1586 10.1546 88.1087 9.16716 88.1586 8.18972C88.2449 6.81 88.4147 5.43693 88.561 4.06053C88.5942 3.76465 88.614 3.53859 88.2949 3.33247C88.0408 3.14801 87.8521 2.88756 87.7558 2.58871C87.6595 2.28987 87.6609 1.96819 87.7597 1.67016C87.8457 1.35956 88.0288 1.08473 88.2826 0.886057C88.5364 0.687387 88.8471 0.575322 89.1693 0.566388C90.0401 0.527581 90.9123 0.535342 91.7825 0.589644C92.0991 0.585037 92.4073 0.693697 92.6511 0.89608C92.8948 1.09844 93.0584 1.3812 93.1123 1.69341C93.2147 2.01347 93.2008 2.35939 93.0729 2.67021C92.9453 2.981 92.7119 3.23674 92.414 3.3923C92.3283 3.44906 92.2669 3.53552 92.2412 3.635C92.065 5.14769 91.8423 6.65374 91.7392 8.16976C91.5896 10.3374 91.543 12.5117 91.4299 14.6794C91.3235 16.794 91.1406 18.9049 91.0776 21.0228C91.0298 22.3417 90.6091 23.6201 89.8642 24.7098C88.7561 26.4284 87.0366 27.6622 85.0535 28.1605C83.0336 28.7611 80.8777 28.7239 78.8796 28.0542C77.1176 27.4391 76.0637 26.1758 75.555 24.3773C75.0231 22.5022 74.9732 20.5873 74.8668 18.669C74.7104 15.8796 74.5078 13.0935 74.3447 10.3075C74.295 9.43646 74.3182 8.56207 74.2883 7.69104C74.2716 7.29208 74.2085 6.89312 74.1521 6.49748C74.0357 5.68959 73.9058 4.88838 73.793 4.0805C73.7958 3.9323 73.7598 3.78593 73.6886 3.65591C73.6174 3.52586 73.5136 3.41667 73.3874 3.33911C72.8455 3.02659 72.6791 2.4049 72.8488 1.72666C72.8994 1.41467 73.0549 1.12917 73.2891 0.917104C73.5236 0.705061 73.8232 0.579035 74.1387 0.559744C75.0762 0.496563 76.0204 0.469956 76.9613 0.489918C77.2907 0.484111 77.6129 0.586266 77.879 0.780748C78.1447 0.975231 78.3399 1.2514 78.434 1.56708C78.5482 1.90453 78.5476 2.27016 78.4329 2.60733C78.3181 2.94454 78.0953 3.23445 77.7991 3.43219C77.7413 3.48086 77.6944 3.54133 77.6617 3.60956C77.6291 3.6778 77.6112 3.7522 77.6095 3.82783C77.6793 4.90499 77.7924 5.97551 77.8522 7.04938C77.9253 8.3227 77.9588 9.59602 78.0185 10.866C78.1017 12.6779 78.0984 14.4965 78.3044 16.2917C78.587 18.7753 78.5638 21.2788 79.099 23.7488C79.1914 24.1626 79.3952 24.5434 79.6881 24.8496C79.981 25.1562 80.3523 25.3767 80.7613 25.4876C81.7946 25.7084 82.8638 25.6992 83.8932 25.4611C84.9368 25.2137 85.8679 24.6243 86.5382 23.7871C87.2086 22.9498 87.5802 21.9123 87.5933 20.8399C87.7097 17.605 87.9691 14.3767 88.1684 11.1453L88.1586 11.1353Z" fill="#F3E6B1"/>
<path d="M112.684 4.25297C112.637 4.83145 112.637 5.41992 112.534 5.98511C112.469 6.38025 112.255 6.73532 111.935 6.97762C111.617 7.21993 111.217 7.3311 110.819 7.28836C110.061 7.25843 109.522 6.70985 109.363 5.88536C109.291 5.57965 109.152 5.29359 108.957 5.04757C108.562 4.50218 108.057 4.04557 107.475 3.70716C106.892 3.36876 106.245 3.15604 105.576 3.0827C104.073 2.88989 102.601 2.89986 101.174 3.51824C100.743 3.67369 100.368 3.95405 100.097 4.32352C99.8254 4.693 99.6704 5.13487 99.6514 5.5928C99.58 6.35372 99.6841 7.12096 99.9563 7.83518C100.228 8.54942 100.661 9.19155 101.221 9.71199C102.65 11.1382 104.086 12.5612 105.543 13.9474C107.155 15.4637 108.807 16.9398 110.447 18.4225C112.268 20.0848 113.073 22.126 112.584 24.5432C112.447 25.3578 112.084 26.1178 111.535 26.7356C110.986 27.3538 110.275 27.8046 109.482 28.0372C106.781 28.9217 103.883 29.0152 101.131 28.3066C101.036 28.2854 100.943 28.2578 100.852 28.2234C100.624 28.1045 100.372 28.0425 100.115 28.0425C99.8589 28.0425 99.6062 28.1045 99.379 28.2234C99.1578 28.3376 98.9113 28.3937 98.6626 28.387C98.4138 28.38 98.1709 28.3103 97.9565 28.1841C97.7421 28.0581 97.5631 27.8795 97.4361 27.6656C97.3093 27.4515 97.2387 27.2089 97.2312 26.9601C97.158 25.9397 97.158 24.9153 97.2312 23.8949C97.2876 23.0604 97.9724 22.5316 98.8304 22.5152C99.5981 22.5152 100.13 22.9806 100.303 23.8117C100.34 23.953 100.416 24.0811 100.523 24.1808C101.257 24.8989 102.185 25.178 103.166 25.371C104.81 25.639 106.493 25.5482 108.099 25.1049C109.22 24.8391 109.429 23.8848 109.329 23.0638C109.235 22.33 108.881 21.6547 108.332 21.1586C107.002 19.9486 105.609 18.8047 104.299 17.5746C102.344 15.7362 100.366 13.9176 98.5277 11.9561C96.9121 10.2373 95.8682 8.19929 95.981 5.71248C96.0608 3.71771 96.9121 2.25488 98.624 1.2708C99.788 0.651451 101.062 0.267372 102.374 0.140425C104.216 -0.125808 106.093 -0.0126537 107.89 0.472882C108.581 0.665717 109.22 1.07464 109.885 1.36388C110.048 1.43954 110.23 1.46277 110.407 1.43038C111.617 1.08129 112.551 1.72627 112.614 2.98962C112.634 3.40187 112.614 3.82076 112.614 4.23301L112.684 4.25297Z" fill="#F3E6B1"/>
</svg>
