<svg width="18" height="20" viewBox="0 0 18 20" fill="none" xmlns="http://www.w3.org/2000/svg">
<path d="M16.7942 5.19774L9.82565 0.262481C9.33097 -0.0878678 8.66903 -0.0878678 8.17435 0.262481L1.20584 5.19774C0.449523 5.73338 0 6.60258 0 7.52936V16.8206C0 18.3985 1.27919 19.6777 2.85714 19.6777H5C5.78898 19.6777 6.42857 19.0381 6.42857 18.2492V16.1063C6.42857 15.3173 7.06817 14.6777 7.85714 14.6777H10.1429C10.9318 14.6777 11.5714 15.3173 11.5714 16.1063V18.2492C11.5714 19.0381 12.211 19.6777 13 19.6777H15.1429C16.7208 19.6777 18 18.3986 18 16.8206V7.52936C18 6.60258 17.5505 5.73338 16.7942 5.19774Z" fill="#0E1B33" fill-opacity="0.8"/>
</svg>
